<svg width="1919" height="233" viewBox="0 0 1919 233" fill="none" xmlns="http://www.w3.org/2000/svg">
<g opacity="0.2" clip-path="url(#clip0_6009_2601)" filter="url(#filter0_i_6009_2601)">
<path d="M493.396 18.0015C235.292 18.0015 26.0577 247.697 26.0577 531.041C26.0577 813.279 233.661 1042.29 490.373 1044.07L493.396 1044.08C501.263 1044.08 509.085 1043.87 516.857 1043.44C522.987 1043.81 529.151 1044.02 535.347 1044.07L538.081 1044.08C546.682 1044.08 555.222 1043.77 563.695 1043.15C570.403 1043.7 577.159 1044.01 583.958 1044.07L586.379 1044.08C594.592 1044.08 602.743 1043.72 610.825 1043C617.218 1043.65 623.66 1044.01 630.147 1044.07L632.271 1044.08C640.688 1044.08 649.03 1043.58 657.288 1042.61C664.376 1043.58 671.537 1044.08 678.762 1044.08C687.67 1044.08 696.48 1043.33 705.177 1041.86C712.384 1043.33 719.685 1044.08 727.067 1044.08C735.537 1044.08 743.902 1043.09 752.139 1041.16C758.778 1043.09 765.521 1044.08 772.348 1044.08C781.214 1044.08 789.936 1042.41 798.476 1039.19C804.935 1042.41 811.531 1044.08 818.237 1044.08C827.742 1044.08 837.029 1040.73 846.014 1034.34C851.872 1040.52 857.92 1043.86 864.107 1044.07L864.728 1044.08C876.875 1044.08 888.495 1032.03 899.192 1010.03C904.152 1031.65 909.531 1043.67 915.154 1044.07L915.447 1044.08C937.944 1044.08 956.606 858.232 960.13 614.661C963.655 858.232 982.317 1044.08 1004.81 1044.08L1005.11 1044.07C1010.73 1043.67 1016.11 1031.65 1021.07 1010.03C1031.77 1032.03 1043.39 1044.08 1055.53 1044.08L1056.15 1044.07C1062.34 1043.86 1068.39 1040.52 1074.25 1034.34C1083.23 1040.73 1092.52 1044.08 1102.02 1044.08C1108.73 1044.08 1115.33 1042.41 1121.79 1039.19C1130.33 1042.41 1139.05 1044.08 1147.91 1044.08C1154.74 1044.08 1161.48 1043.09 1168.12 1041.16C1176.36 1043.09 1184.72 1044.08 1193.19 1044.08C1200.58 1044.08 1207.88 1043.33 1215.08 1041.86C1223.78 1043.33 1232.59 1044.08 1241.5 1044.08C1248.72 1044.08 1255.89 1043.58 1262.97 1042.61C1271.23 1043.58 1279.57 1044.08 1287.99 1044.08L1290.11 1044.07C1296.6 1044.01 1303.04 1043.65 1309.44 1043C1317.52 1043.72 1325.67 1044.08 1333.88 1044.08L1336.3 1044.07C1343.1 1044.01 1349.86 1043.7 1356.57 1043.15C1365.04 1043.77 1373.58 1044.08 1382.18 1044.08L1384.91 1044.07C1391.11 1044.02 1397.27 1043.81 1403.41 1043.44C1411.18 1043.87 1419 1044.08 1426.86 1044.08L1429.89 1044.07C1686.6 1042.29 1894.2 813.279 1894.2 531.041C1894.2 247.697 1684.97 18.0015 1426.86 18.0015L1423.84 18.0122C1416.99 18.0598 1410.18 18.2702 1403.4 18.6382C1396.37 18.2164 1389.3 18.0015 1382.18 18.0015L1379.45 18.0122C1371.77 18.0712 1364.15 18.3809 1356.57 18.9302C1349.07 18.3152 1341.5 18.0015 1333.88 18.0015L1331.46 18.0122C1324.07 18.0764 1316.73 18.4353 1309.44 19.0787C1302.35 18.3646 1295.2 18.0015 1287.99 18.0015L1285.87 18.0122C1278.17 18.0883 1270.54 18.5779 1262.97 19.4674C1255.89 18.4962 1248.72 18.0015 1241.5 18.0015C1232.59 18.0015 1223.78 18.7552 1215.08 20.2253C1207.88 18.7551 1200.58 18.0015 1193.19 18.0015C1184.72 18.0015 1176.36 18.9918 1168.12 20.9206C1161.48 18.9917 1154.74 18.0015 1147.91 18.0015C1139.05 18.0015 1130.32 19.6697 1121.79 22.8964C1115.33 19.6701 1108.73 18.0015 1102.02 18.0015C1092.52 18.0015 1083.23 21.3531 1074.25 27.7444C1068.19 21.3525 1061.94 18.0015 1055.53 18.0015L1054.91 18.0122C1042.99 18.4159 1031.58 30.4323 1021.07 52.051C1016.02 30.0571 1010.54 18.0015 1004.81 18.0015L1004.52 18.0122C982.154 19.6184 963.638 204.928 960.13 447.458C956.623 204.928 938.107 19.6184 915.74 18.0122L915.447 18.0015C909.718 18.0015 904.239 30.0572 899.193 52.051C888.679 30.432 877.272 18.4159 865.35 18.0122L864.728 18.0015C858.324 18.0015 852.067 21.3528 846.014 27.7444C837.03 21.3528 827.742 18.0015 818.237 18.0015C811.531 18.0015 804.935 19.6703 798.476 22.8964C789.937 19.6695 781.214 18.0015 772.348 18.0015C765.52 18.0015 758.778 18.9918 752.138 20.9206C743.901 18.9917 735.537 18.0015 727.067 18.0015C719.686 18.0015 712.385 18.7552 705.178 20.2253C696.481 18.7551 687.67 18.0015 678.762 18.0015C671.537 18.0015 664.376 18.4963 657.288 19.4674C649.726 18.5778 642.092 18.0884 634.395 18.0122L632.271 18.0015C625.064 18.0015 617.911 18.3647 610.82 19.0787C603.535 18.4352 596.193 18.0764 588.8 18.0122L586.379 18.0015C578.76 18.0015 571.195 18.3153 563.689 18.9302C556.116 18.3809 548.49 18.0712 540.815 18.0122L538.081 18.0015C530.966 18.0015 523.892 18.2164 516.863 18.6382C510.085 18.2702 503.269 18.0598 496.418 18.0122L493.396 18.0015ZM958.081 651.264C956.102 744.618 951.873 828.027 946.077 893.693C941.981 940.095 937.107 977.598 931.706 1003.48C929.003 1016.43 926.182 1026.4 923.291 1033.1C921.842 1036.46 920.41 1038.92 919.023 1040.52C917.627 1042.12 916.434 1042.68 915.447 1042.68C914.46 1042.68 913.267 1042.12 911.872 1040.52C910.485 1038.92 909.052 1036.46 907.604 1033.1C905.058 1027.2 902.568 1018.77 900.165 1008C928.86 947.063 950.755 814.312 958.081 651.264ZM1426.86 19.399C1684.08 19.399 1892.81 248.343 1892.81 531.041C1892.81 813.739 1684.08 1042.68 1426.86 1042.68C1423 1042.68 1419.14 1042.63 1415.29 1042.53C1633.24 1022.02 1804.84 800.858 1804.84 531.041C1804.84 261.225 1633.24 40.0581 1415.3 19.5543C1419.14 19.4514 1423 19.399 1426.86 19.399ZM1375.24 1040.98C1380.4 1041.61 1385.6 1042.14 1390.82 1042.58C1387.94 1042.65 1385.07 1042.68 1382.18 1042.68C1376.57 1042.68 1370.98 1042.55 1365.42 1042.28C1368.71 1041.91 1371.98 1041.47 1375.24 1040.98ZM1329.18 1040.08C1335.18 1040.99 1341.21 1041.75 1347.28 1042.36C1342.84 1042.57 1338.37 1042.68 1333.88 1042.68C1328.12 1042.68 1322.39 1042.5 1316.69 1042.15C1320.87 1041.58 1325.04 1040.89 1329.18 1040.08ZM1281.19 1039.04C1288.02 1040.36 1294.92 1041.42 1301.87 1042.23C1297.26 1042.53 1292.64 1042.68 1287.99 1042.68C1281.41 1042.68 1274.88 1042.38 1268.39 1041.78C1272.69 1041.04 1276.95 1040.12 1281.19 1039.04ZM1232.6 1036.81C1240.75 1038.98 1249.01 1040.67 1257.36 1041.88C1252.11 1042.41 1246.82 1042.68 1241.5 1042.68C1233.87 1042.68 1226.3 1042.12 1218.82 1041.03C1223.45 1039.92 1228.05 1038.51 1232.6 1036.81ZM1185.4 1033.92C1193.87 1037.04 1202.49 1039.46 1211.22 1041.16C1205.27 1042.17 1199.26 1042.68 1193.19 1042.68C1185.65 1042.68 1178.19 1041.88 1170.82 1040.33C1175.74 1038.7 1180.6 1036.56 1185.4 1033.92ZM1136.56 1028.91C1145.94 1034.04 1155.55 1037.92 1165.34 1040.47C1159.59 1041.94 1153.78 1042.68 1147.91 1042.68C1139.64 1042.68 1131.48 1041.2 1123.46 1038.31C1127.9 1035.9 1132.27 1032.76 1136.56 1028.91ZM1086.72 1016.41C1097.41 1026.4 1108.54 1033.85 1120.01 1038.49C1114.09 1041.26 1108.09 1042.68 1102.02 1042.68C1092.92 1042.68 1083.95 1039.49 1075.2 1033.3C1079.13 1028.93 1082.98 1023.27 1086.72 1016.41ZM1028.26 970.068C1041.88 999.804 1057 1021.55 1073.11 1033.51C1067.25 1039.65 1061.37 1042.68 1055.53 1042.68C1049.45 1042.68 1043.32 1039.39 1037.22 1032.72C1031.86 1026.86 1026.63 1018.51 1021.56 1007.83C1023.9 997.308 1026.13 984.648 1028.26 970.068ZM962.18 651.264C969.507 814.312 991.401 947.064 1020.1 1008C1017.69 1018.77 1015.2 1027.2 1012.66 1033.1C1011.21 1036.46 1009.78 1038.92 1008.39 1040.52C1006.99 1042.12 1005.8 1042.68 1004.81 1042.68C1003.83 1042.68 1002.63 1042.12 1001.24 1040.52C999.851 1038.92 998.418 1036.46 996.97 1033.1C994.078 1026.4 991.257 1016.43 988.555 1003.48C983.153 977.598 978.28 940.095 974.184 893.693C968.388 828.027 964.159 744.618 962.18 651.264ZM892.006 970.068C894.129 984.648 896.365 997.308 898.697 1007.83C893.637 1018.51 888.399 1026.86 883.045 1032.72C876.937 1039.39 870.812 1042.68 864.728 1042.68C858.891 1042.68 853.016 1039.65 847.154 1033.51C863.265 1021.55 878.383 999.804 892.006 970.068ZM833.543 1016.41C837.283 1023.27 841.127 1028.93 845.059 1033.3C836.311 1039.49 827.34 1042.68 818.237 1042.68C812.174 1042.68 806.17 1041.26 800.251 1038.49C811.718 1033.85 822.848 1026.4 833.543 1016.41ZM783.702 1028.91C787.995 1032.76 792.364 1035.9 796.801 1038.31C788.782 1041.2 780.62 1042.68 772.348 1042.68C766.482 1042.68 760.67 1041.94 754.925 1040.47C764.716 1037.92 774.321 1034.04 783.702 1028.91ZM734.867 1033.92C739.663 1036.56 744.525 1038.7 749.446 1040.33C742.076 1041.89 734.611 1042.68 727.067 1042.68C721.005 1042.68 714.994 1042.17 709.042 1041.16C717.776 1039.46 726.39 1037.04 734.867 1033.92ZM687.663 1036.81C692.213 1038.51 696.808 1039.92 701.444 1041.03C693.96 1042.12 686.395 1042.68 678.762 1042.68C673.441 1042.68 668.153 1042.41 662.903 1041.88C671.251 1040.67 679.508 1038.98 687.663 1036.81ZM639.071 1039.04C643.307 1040.12 647.574 1041.04 651.868 1041.78C645.384 1042.38 638.85 1042.68 632.271 1042.68C627.623 1042.68 622.997 1042.53 618.396 1042.23C625.343 1041.42 632.237 1040.36 639.071 1039.04ZM591.083 1040.08C595.223 1040.89 599.387 1041.58 603.573 1042.15C597.874 1042.5 592.141 1042.68 586.379 1042.68C581.893 1042.68 577.425 1042.57 572.977 1042.36C579.05 1041.75 585.086 1040.99 591.083 1040.08ZM545.025 1040.98C548.284 1041.47 551.555 1041.91 554.838 1042.28C549.279 1042.55 543.693 1042.68 538.081 1042.68C535.196 1042.68 532.318 1042.65 529.447 1042.58C534.664 1042.14 539.857 1041.61 545.025 1040.98ZM493.396 19.399C497.264 19.399 501.121 19.4514 504.966 19.5543C287.017 40.0575 115.424 261.225 115.424 531.041C115.424 800.858 287.017 1022.02 504.967 1042.53C501.121 1042.63 497.264 1042.68 493.396 1042.68C236.184 1042.68 27.4553 813.739 27.4553 531.041C27.4553 248.343 236.184 19.399 493.396 19.399ZM1403.39 20.0378C1625.98 33.455 1803.44 256.859 1803.44 531.041C1803.44 805.223 1625.98 1028.63 1403.39 1042.04C1395.66 1041.62 1387.98 1040.99 1380.36 1040.16C1565.18 1008.8 1708.24 792.818 1708.24 531.041C1708.24 269.264 1565.17 53.2819 1380.36 21.9188C1387.98 21.0886 1395.66 20.459 1403.39 20.0378ZM516.87 20.0378C524.6 20.4591 532.28 21.0886 539.906 21.9188C355.086 53.2814 212.025 269.264 212.025 531.041C212.025 792.819 355.086 1008.8 539.905 1040.16C532.279 1040.99 524.6 1041.62 516.87 1042.04C294.286 1028.63 116.822 805.224 116.822 531.041C116.822 256.859 294.286 33.4545 516.87 20.0378ZM1345.31 1036.29C1353.46 1037.87 1361.68 1039.21 1369.97 1040.32C1365.52 1040.9 1361.06 1041.38 1356.57 1041.75C1348.72 1041.18 1340.93 1040.35 1333.2 1039.26C1337.26 1038.39 1341.3 1037.4 1345.31 1036.29ZM574.951 1036.29C578.962 1037.4 582.998 1038.39 587.058 1039.26C579.332 1040.35 571.543 1041.18 563.696 1041.75C559.206 1041.38 554.738 1040.9 550.292 1040.32C558.581 1039.21 566.802 1037.87 574.951 1036.29ZM1297.8 1033.85C1306.78 1036.06 1315.87 1037.92 1325.05 1039.43C1319.87 1040.34 1314.67 1041.07 1309.43 1041.6C1300.98 1040.85 1292.61 1039.71 1284.32 1038.2C1288.85 1036.95 1293.34 1035.49 1297.8 1033.85ZM622.466 1033.85C626.921 1035.49 631.414 1036.95 635.942 1038.2C627.655 1039.71 619.284 1040.85 610.836 1041.6C605.595 1041.07 600.388 1040.34 595.216 1039.43C604.397 1037.92 613.483 1036.06 622.466 1033.85ZM1247.26 1030.28C1257.34 1033.55 1267.58 1036.26 1277.96 1038.39C1273 1039.57 1268 1040.51 1262.96 1041.21C1253.47 1040.08 1244.09 1038.32 1234.84 1035.95C1239.02 1034.3 1243.16 1032.41 1247.26 1030.28ZM673.001 1030.28C677.099 1032.41 681.24 1034.3 685.419 1035.95C676.17 1038.32 666.792 1040.08 657.303 1041.21C652.267 1040.51 647.267 1039.57 642.306 1038.39C652.683 1036.26 662.921 1033.55 673.001 1030.28ZM1198.97 1025.01C1209.2 1029.5 1219.64 1033.24 1230.25 1036.18C1225.23 1037.95 1220.17 1039.38 1215.06 1040.43C1205.57 1038.81 1196.21 1036.33 1187.01 1033.02C1191.04 1030.7 1195.03 1028.02 1198.97 1025.01ZM721.293 1025.01C725.231 1028.02 729.219 1030.7 733.256 1033.02C724.055 1036.33 714.697 1038.81 705.204 1040.43C700.093 1039.38 695.028 1037.95 690.014 1036.18C700.625 1033.24 711.06 1029.5 721.293 1025.01ZM1148.85 1015.74C1160.14 1022.89 1171.76 1028.76 1183.66 1033.27C1178.53 1036.01 1173.34 1038.16 1168.09 1039.71C1157.74 1037.25 1147.58 1033.28 1137.66 1027.91C1141.45 1024.39 1145.18 1020.33 1148.85 1015.74ZM771.416 1015.74C775.079 1020.33 778.81 1024.39 782.603 1027.91C772.685 1033.28 762.526 1037.25 752.173 1039.71C746.922 1038.16 741.73 1036.01 736.604 1033.27C748.5 1028.76 760.121 1022.89 771.416 1015.74ZM1375.22 22.5096C1461.56 35.5754 1539.09 89.0906 1597.46 169.091C1665.01 261.67 1706.84 389.634 1706.84 531.041C1706.84 672.449 1665.01 800.413 1597.46 892.991C1539.09 972.992 1461.56 1026.51 1375.22 1039.57C1366.18 1038.48 1357.21 1037.1 1348.33 1035.44C1500.92 991.191 1616.45 782.192 1616.45 531.041C1616.45 279.892 1500.92 70.8923 1348.33 26.6398C1357.21 24.9843 1366.18 23.605 1375.22 22.5096ZM545.042 22.5096C554.086 23.605 563.051 24.9843 571.931 26.6398C419.345 70.8917 303.806 279.891 303.806 531.041C303.806 782.192 419.346 991.191 571.933 1035.44C563.052 1037.1 554.086 1038.48 545.042 1039.57C458.706 1026.51 381.174 972.992 322.8 892.991C255.247 800.413 213.423 672.449 213.423 531.041C213.423 389.634 255.247 261.67 322.8 169.091C381.174 89.0903 458.706 35.5752 545.042 22.5096ZM1311.25 1028.26C1321.44 1031.1 1331.76 1033.58 1342.2 1035.68C1337.88 1036.81 1333.53 1037.8 1329.15 1038.66C1319.37 1037.17 1309.69 1035.27 1300.13 1032.98C1303.86 1031.54 1307.57 1029.96 1311.25 1028.26ZM609.007 1028.26C612.689 1029.96 616.398 1031.54 620.136 1032.98C610.573 1035.27 600.893 1037.17 591.11 1038.66C586.735 1037.8 582.386 1036.81 578.066 1035.68C588.505 1033.58 598.823 1031.1 609.007 1028.26ZM1095.62 997.346C1108.27 1010.12 1121.52 1020.49 1135.27 1028.19C1130.81 1032.14 1126.28 1035.3 1121.71 1037.66C1109.92 1033.1 1098.45 1025.51 1087.4 1015.13C1090.2 1009.87 1092.95 1003.93 1095.62 997.346ZM824.641 997.346C827.317 1003.93 830.058 1009.87 832.859 1015.13C821.815 1025.51 810.343 1033.1 798.555 1037.66C793.978 1035.3 789.455 1032.14 784.997 1028.19C798.739 1020.49 811.995 1010.12 824.641 997.346ZM1260.48 1022.49C1271.91 1026.65 1283.54 1030.25 1295.36 1033.24C1290.66 1034.91 1285.92 1036.37 1281.14 1037.6C1270.27 1035.49 1259.54 1032.73 1248.99 1029.36C1252.86 1027.28 1256.69 1024.99 1260.48 1022.49ZM659.784 1022.49C663.574 1024.99 667.404 1027.28 671.272 1029.36C660.719 1032.73 649.994 1035.49 639.12 1037.6C634.342 1036.37 629.602 1034.91 624.902 1033.24C636.718 1030.25 648.353 1026.65 659.784 1022.49ZM1210.17 1015.4C1221.66 1020.92 1233.41 1025.68 1245.39 1029.66C1241.14 1031.82 1236.85 1033.71 1232.52 1035.35C1221.56 1032.42 1210.79 1028.63 1200.23 1024.04C1203.58 1021.4 1206.89 1018.52 1210.17 1015.4ZM710.094 1015.4C713.367 1018.52 716.681 1021.4 720.034 1024.04C709.472 1028.63 698.697 1032.42 687.739 1035.35C683.409 1033.71 679.119 1031.82 674.871 1029.66C686.847 1025.68 698.599 1020.92 710.094 1015.4ZM1345.26 27.2239C1412.44 45.8002 1472.64 96.4986 1519.07 169.021C1578.35 261.606 1615.06 389.596 1615.06 531.041C1615.06 672.487 1578.35 800.477 1519.07 893.062C1472.64 965.584 1412.44 1016.28 1345.26 1034.86C1334.44 1032.76 1323.75 1030.25 1313.2 1027.35C1434.2 969.633 1523.47 769.306 1523.47 531.041C1523.47 292.776 1434.2 92.4486 1313.2 34.7362C1323.75 31.832 1334.44 29.3231 1345.26 27.2239ZM575.007 27.2239C585.826 29.3232 596.517 31.8319 607.065 34.7362C486.06 92.4481 396.79 292.776 396.79 531.041C396.79 769.307 486.06 969.633 607.065 1027.35C596.517 1030.25 585.826 1032.76 575.007 1034.86C507.82 1016.28 447.619 965.584 401.187 893.062C341.912 800.477 305.203 672.487 305.203 531.041C305.203 389.596 341.912 261.606 401.187 169.021C447.619 96.4982 507.82 45.8 575.007 27.2239ZM1032.55 936.65C1048.43 970.196 1066.33 996.979 1085.67 1015.41C1081.88 1022.41 1078 1028.12 1074.06 1032.48C1065 1025.79 1056.19 1015.89 1047.73 1003C1041.09 992.896 1034.71 981.011 1028.63 967.505C1029.98 957.99 1031.29 947.686 1032.55 936.65ZM887.716 936.65C888.971 947.686 890.281 957.99 891.637 967.505C885.552 981.011 879.168 992.896 872.535 1003C864.071 1015.89 855.257 1025.79 846.199 1032.48C842.26 1028.12 838.383 1022.41 834.594 1015.41C853.936 996.979 871.837 970.196 887.716 936.65ZM1158.29 1002.53C1170.97 1011.05 1184.07 1018.36 1197.51 1024.37C1193.48 1027.41 1189.4 1030.09 1185.28 1032.39C1173.13 1027.88 1161.26 1021.92 1149.72 1014.64C1152.62 1010.93 1155.48 1006.89 1158.29 1002.53ZM761.971 1002.53C764.783 1006.89 767.642 1010.93 770.543 1014.64C759.006 1021.92 747.133 1027.88 734.98 1032.39C730.857 1030.09 726.778 1027.41 722.75 1024.37C736.196 1018.36 749.29 1011.05 761.971 1002.53ZM1271.08 1014.89C1283.55 1019.72 1296.25 1023.99 1309.17 1027.67C1305.38 1029.39 1301.57 1030.96 1297.72 1032.39C1285.59 1029.39 1273.65 1025.76 1261.93 1021.52C1265.01 1019.45 1268.06 1017.23 1271.08 1014.89ZM649.178 1014.89C652.201 1017.23 655.254 1019.45 658.333 1021.52C646.608 1025.76 634.67 1029.39 622.544 1032.39C618.697 1030.96 614.879 1029.39 611.09 1027.67C624.011 1023.99 636.716 1019.72 649.178 1014.89ZM1220.14 1005.02C1232.74 1011.38 1245.65 1017.01 1258.84 1021.89C1254.98 1024.4 1251.07 1026.69 1247.13 1028.76C1234.93 1024.77 1222.95 1019.96 1211.24 1014.37C1214.24 1011.45 1217.21 1008.33 1220.14 1005.02ZM700.124 1005.02C703.052 1008.33 706.017 1011.45 709.017 1014.37C697.308 1019.96 685.335 1024.77 673.131 1028.76C669.189 1026.69 665.287 1024.4 661.424 1021.89C674.609 1017.01 687.52 1011.38 700.124 1005.02ZM1102.77 977.79C1117.01 992.461 1132.02 1004.94 1147.66 1014.98C1143.95 1019.62 1140.18 1023.7 1136.37 1027.2C1122.45 1019.47 1109.01 1008.96 1096.19 995.935C1098.43 990.329 1100.62 984.273 1102.77 977.79ZM817.495 977.79C819.638 984.273 821.831 990.329 824.072 995.935C811.25 1008.96 797.814 1019.47 783.896 1027.2C780.079 1023.7 776.311 1019.62 772.6 1014.98C788.244 1004.94 803.255 992.461 817.495 977.79ZM1311.14 35.3104C1360.42 58.2973 1404.59 105.14 1439.66 168.94C1490.55 261.539 1522.07 389.559 1522.07 531.041C1522.07 672.524 1490.55 800.544 1439.66 893.143C1404.59 956.942 1360.42 1003.78 1311.14 1026.77C1297.98 1023.08 1285.05 1018.77 1272.37 1013.88C1362.45 942.659 1426.86 753.365 1426.86 531.041C1426.86 308.718 1362.45 119.423 1272.37 48.2021C1285.05 43.3095 1297.98 39.0029 1311.14 35.3104ZM609.127 35.3104C622.281 39.0029 635.212 43.3095 647.892 48.2021C557.808 119.423 493.399 308.717 493.399 531.041C493.399 753.365 557.808 942.659 647.892 1013.88C635.212 1018.77 622.281 1023.08 609.127 1026.77C559.837 1003.78 515.667 956.943 480.602 893.143C429.708 800.544 398.187 672.524 398.187 531.041C398.187 389.559 429.708 261.539 480.602 168.94C515.667 105.14 559.837 58.2971 609.127 35.3104ZM1165.95 989.685C1179.77 999.211 1194.09 1007.6 1208.82 1014.75C1205.51 1017.89 1202.16 1020.77 1198.77 1023.4C1185.15 1017.37 1171.89 1009.99 1159.04 1001.36C1161.38 997.682 1163.68 993.79 1165.95 989.685ZM754.315 989.685C756.582 993.79 758.883 997.682 761.217 1001.36C748.374 1009.99 735.109 1017.37 721.487 1023.4C718.1 1020.77 714.751 1017.89 711.438 1014.75C726.176 1007.6 740.491 999.211 754.315 989.685ZM1228.05 995.473C1241.55 1002.45 1255.4 1008.73 1269.56 1014.29C1266.5 1016.64 1263.42 1018.86 1260.3 1020.93C1246.94 1016.03 1233.86 1010.35 1221.1 1003.93C1223.44 1001.23 1225.76 998.415 1228.05 995.473ZM692.207 995.473C694.502 998.415 696.822 1001.23 699.166 1003.93C686.401 1010.35 673.321 1016.03 659.962 1020.93C656.847 1018.86 653.759 1016.64 650.699 1014.29C664.864 1008.73 678.712 1002.45 692.207 995.473ZM1035.4 909.429C1052.88 944.594 1072.81 973.995 1094.55 996.261C1093.58 998.659 1092.61 1000.97 1091.62 1003.2C1089.89 1007.12 1088.13 1010.77 1086.35 1014.13C1082.73 1010.67 1079.16 1006.9 1075.64 1002.85C1060.24 985.105 1045.86 961.867 1032.84 934.004C1033.72 926.166 1034.57 917.967 1035.4 909.429ZM884.867 909.429C885.689 917.967 886.541 926.166 887.418 934.004C874.404 961.867 860.024 985.105 844.621 1002.85C841.101 1006.9 837.529 1010.67 833.912 1014.13C832.134 1010.77 830.374 1007.12 828.638 1003.2C827.653 1000.97 826.677 998.659 825.709 996.261C847.456 973.995 867.384 944.594 884.867 909.429ZM1108.11 960.373C1123.59 976.231 1139.98 990.099 1157.13 1001.75C1156.86 1002.17 1156.59 1002.58 1156.32 1003C1153.76 1006.9 1151.16 1010.53 1148.53 1013.88C1132.76 1003.77 1117.62 991.158 1103.26 976.291C1104.9 971.235 1106.52 965.926 1108.11 960.373ZM812.155 960.373C813.74 965.926 815.357 971.235 817.005 976.291C802.644 991.158 787.503 1003.77 771.728 1013.88C769.102 1010.53 766.504 1006.9 763.939 1003C763.668 1002.58 763.398 1002.17 763.128 1001.75C780.281 990.099 796.673 976.231 812.155 960.373ZM1172.66 976.708C1187.52 987.019 1202.94 996.266 1218.85 1004.37C1215.9 1007.69 1212.92 1010.81 1209.9 1013.72C1195.02 1006.53 1180.57 998.075 1166.62 988.454C1168.66 984.709 1170.68 980.792 1172.66 976.708ZM747.6 976.708C749.584 980.792 751.597 984.709 753.639 988.454C739.689 998.075 725.24 1006.53 710.361 1013.72C707.345 1010.81 704.361 1007.69 701.412 1004.37C717.326 996.266 732.746 987.019 747.6 976.708ZM1270.85 48.791C1303.53 74.3779 1332.94 115.692 1357.15 168.846C1399.34 261.468 1425.46 389.522 1425.46 531.041C1425.46 672.561 1399.34 800.615 1357.15 893.237C1332.94 946.391 1303.53 987.704 1270.85 1013.29C1256.54 1007.71 1242.56 1001.38 1228.93 994.346C1292.42 911.85 1336.3 735.4 1336.3 531.041C1336.3 326.683 1292.42 150.231 1228.93 67.7358C1242.56 60.7031 1256.54 54.3737 1270.85 48.791ZM649.408 48.791C663.718 54.3737 677.706 60.703 691.334 67.7358C627.839 150.231 583.964 326.682 583.964 531.041C583.964 735.4 627.839 911.85 691.334 994.346C677.706 1001.38 663.718 1007.71 649.408 1013.29C616.731 987.704 587.32 946.391 563.11 893.237C520.925 800.615 494.796 672.561 494.796 531.041C494.796 389.522 520.925 261.468 563.11 168.846C587.32 115.692 616.73 74.3779 649.408 48.791ZM963.819 656.461C972.963 787.49 996.102 898.508 1027.18 967.709C1025.24 981.32 1023.2 993.298 1021.07 1003.48C1020.91 1004.25 1020.75 1005 1020.59 1005.75C1020.21 1004.91 1019.82 1004.06 1019.44 1003.2C1008.02 977.382 997.7 939.937 989.021 893.559C976.971 829.16 968.11 747.673 963.819 656.461ZM956.443 656.461C952.152 747.673 943.29 829.16 931.239 893.559C922.561 939.937 912.241 977.382 900.819 1003.2C900.437 1004.06 900.054 1004.91 899.67 1005.75C899.509 1005 899.348 1004.25 899.188 1003.48C897.064 993.298 895.023 981.32 893.077 967.709C924.16 898.508 947.299 787.49 956.443 656.461ZM1177.93 965.314C1193.61 976.172 1209.92 986.034 1226.79 994.82C1224.61 997.608 1222.41 1000.29 1220.18 1002.85C1220.06 1002.99 1219.93 1003.13 1219.81 1003.28C1203.77 995.133 1188.24 985.82 1173.28 975.425C1174.85 972.158 1176.4 968.787 1177.93 965.314ZM742.334 965.314C743.864 968.787 745.413 972.158 746.981 975.425C732.022 985.82 716.488 995.133 700.453 1003.28C700.328 1003.13 700.201 1002.99 700.076 1002.85C697.852 1000.29 695.65 997.608 693.47 994.82C710.338 986.034 726.651 976.172 742.334 965.314ZM1112.35 944.643C1128.85 961.272 1146.38 976.09 1164.79 988.885C1162.52 992.997 1160.22 996.896 1157.89 1000.57C1140.62 988.844 1124.13 974.851 1108.55 958.826C1109.84 954.258 1111.1 949.529 1112.35 944.643ZM807.915 944.643C809.159 949.529 810.426 954.258 811.714 958.826C796.137 974.851 779.638 988.844 762.374 1000.57C760.039 996.896 757.738 992.997 755.469 988.885C773.878 976.09 791.413 961.272 807.915 944.643ZM1037.57 885.342C1056.34 921.1 1077.92 951.93 1101.67 976.654C1099.53 983.153 1097.35 989.224 1095.12 994.842C1073.27 972.353 1053.22 942.556 1035.65 906.785C1036.3 899.853 1036.94 892.702 1037.57 885.342ZM882.697 885.342C883.317 892.702 883.957 899.853 884.615 906.785C867.038 942.556 846.991 972.353 825.14 994.842C822.91 989.224 820.728 983.153 818.594 976.654C842.344 951.93 863.926 921.1 882.697 885.342ZM1227.67 68.3882C1247.09 93.5611 1264.71 127.637 1279.81 168.749C1313.83 261.4 1334.9 389.49 1334.9 531.041C1334.9 672.593 1313.83 800.683 1279.81 893.334C1264.71 934.446 1247.09 968.521 1227.67 993.694C1210.69 984.864 1194.28 974.941 1178.5 964.007C1218.19 872.935 1244.52 713.058 1244.52 531.041C1244.52 349.024 1218.19 189.146 1178.5 98.0751C1194.28 87.1411 1210.69 77.2176 1227.67 68.3882ZM692.596 68.3882C709.573 77.2177 725.986 87.1411 741.761 98.0751C702.069 189.146 675.741 349.024 675.741 531.041C675.741 713.058 702.069 872.935 741.761 964.007C725.986 974.941 709.573 984.864 692.596 993.694C673.175 968.521 655.548 934.446 640.452 893.334C606.431 800.683 585.362 672.593 585.362 531.041C585.362 389.49 606.431 261.4 640.452 168.749C655.548 127.636 673.175 93.5611 692.596 68.3882ZM1116 929.572C1133.4 946.727 1151.96 962.233 1171.5 975.897C1169.52 979.986 1167.51 983.907 1165.47 987.653C1146.96 974.775 1129.33 959.84 1112.74 943.06C1113.85 938.686 1114.93 934.189 1116 929.572ZM804.267 929.572C805.331 934.189 806.417 938.686 807.518 943.06C790.935 959.84 773.306 974.775 754.793 987.653C752.754 983.907 750.743 979.986 748.76 975.897C768.301 962.233 786.857 946.727 804.267 929.572ZM1039.12 865.882C1058.86 901.632 1081.7 933.084 1106.98 959.217C1105.41 964.776 1103.8 970.09 1102.16 975.15C1080.61 952.611 1060.84 924.99 1043.34 893.143C1041.46 889.724 1039.61 886.257 1037.78 882.743C1038.24 877.236 1038.69 871.614 1039.12 865.882ZM881.137 865.882C881.573 871.614 882.021 877.236 882.479 882.743C880.653 886.257 878.802 889.724 876.923 893.143C859.419 924.99 839.647 952.611 818.102 975.15C816.463 970.09 814.854 964.776 813.277 959.217C838.565 933.084 861.403 901.632 881.137 865.882ZM1118.81 916.855C1136.94 934.313 1156.31 950.255 1176.76 964.503C1175.23 967.977 1173.68 971.349 1172.12 974.615C1152.48 960.867 1133.84 945.252 1116.36 927.966C1117.19 924.334 1118.01 920.63 1118.81 916.855ZM801.448 916.855C802.253 920.63 803.072 924.334 803.9 927.966C786.422 945.252 767.78 960.867 748.142 974.615C746.577 971.349 745.03 967.977 743.503 964.503C763.95 950.255 783.32 934.313 801.448 916.855ZM954.983 657.311C948.592 748.141 935.471 829.282 917.651 893.442C910.116 920.57 901.748 944.635 892.708 965.101C891.374 955.567 890.085 945.262 888.849 934.239C920.964 865.32 944.645 768.554 954.983 657.311ZM965.279 657.311C975.617 768.554 999.298 865.32 1031.41 934.239C1030.18 945.262 1028.89 955.567 1027.55 965.101C1018.51 944.635 1010.15 920.57 1002.61 893.442C984.79 829.282 971.669 748.141 965.279 657.311ZM1177.33 98.8886C1186.05 118.937 1194.14 142.351 1201.44 168.641C1227.18 261.33 1243.12 389.459 1243.12 531.041C1243.12 672.624 1227.18 800.753 1201.44 893.442C1194.14 919.732 1186.05 943.145 1177.33 963.193C1156.79 948.864 1137.35 932.818 1119.16 915.239C1139.02 821.247 1151.54 683.957 1151.54 531.041C1151.54 378.125 1139.02 240.834 1119.16 146.842C1137.35 129.263 1156.79 113.217 1177.33 98.8886ZM742.93 98.8886C763.467 113.217 782.915 129.263 801.104 146.842C781.245 240.834 768.725 378.125 768.725 531.041C768.725 683.957 781.246 821.247 801.105 915.239C782.915 932.818 763.468 948.864 742.93 963.193C734.21 943.145 726.126 919.732 718.824 893.442C693.079 800.753 677.139 672.624 677.139 531.041C677.139 389.459 693.079 261.33 718.824 168.641C726.126 142.351 734.21 118.937 742.93 98.8886ZM1040.32 849.435C1060.82 884.881 1084.66 916.526 1111.2 943.478C1109.96 948.363 1108.7 953.092 1107.42 957.66C1089.23 938.779 1072.31 917.122 1056.91 893.062C1050.8 883.52 1044.93 873.601 1039.32 863.331C1039.66 858.767 1040 854.135 1040.32 849.435ZM879.938 849.435C880.266 854.135 880.602 858.767 880.945 863.331C875.33 873.601 869.462 883.52 863.353 893.062C847.949 917.122 831.028 938.779 812.841 957.66C811.56 953.092 810.301 948.363 809.065 943.478C835.598 916.526 859.441 884.881 879.938 849.435ZM1041.33 834.466C1062.49 869.418 1087.2 900.996 1114.83 928.414C1113.77 933.027 1112.69 937.522 1111.6 941.893C1096.98 926.979 1083.17 910.63 1070.3 892.991C1059.72 878.481 1049.76 863.101 1040.5 846.937C1040.78 842.83 1041.06 838.673 1041.33 834.466ZM878.929 834.466C879.202 838.673 879.479 842.83 879.763 846.937C870.501 863.101 860.546 878.481 849.958 892.991C837.088 910.63 823.285 926.979 808.664 941.893C807.569 937.522 806.495 933.027 805.437 928.414C833.062 900.996 857.776 869.418 878.929 834.466ZM953.47 658.486C944.983 748.804 927.689 829.484 904.244 893.334C899.278 906.858 894.039 919.62 888.552 931.555C887.689 923.731 886.852 915.556 886.043 907.047C918.379 841.11 942.197 755.309 953.47 658.486ZM966.792 658.486C978.065 755.31 1001.88 841.11 1034.22 907.047C1033.41 915.556 1032.57 923.731 1031.71 931.555C1026.22 919.62 1020.98 906.858 1016.02 893.334C992.571 829.484 975.279 748.804 966.792 658.486ZM1042.1 822.311C1063.76 856.726 1089.15 888.092 1117.63 915.707C1116.83 919.478 1116.02 923.178 1115.19 926.806C1087.45 899.166 1062.66 867.308 1041.49 832.031C1041.7 828.819 1041.9 825.579 1042.1 822.311ZM878.164 822.311C878.363 825.579 878.566 828.819 878.772 832.031C857.604 867.308 832.813 899.166 805.068 926.806C804.244 923.178 803.433 919.478 802.633 915.707C831.114 888.092 856.506 856.726 878.164 822.311ZM1117.97 147.989C1119.37 154.621 1120.72 161.469 1122.04 168.524C1139.4 261.258 1150.14 389.428 1150.14 531.041C1150.14 672.654 1139.4 800.825 1122.04 893.559C1120.72 900.613 1119.36 907.461 1117.97 914.093C1089.37 886.265 1063.91 854.633 1042.24 819.917C1047.2 737.639 1050.1 638.175 1050.1 531.041C1050.1 423.908 1047.2 324.443 1042.24 242.165C1063.91 207.45 1089.37 175.817 1117.97 147.989ZM802.291 147.989C830.891 175.817 856.353 207.45 878.02 242.165C873.062 324.443 870.162 423.908 870.162 531.041C870.162 638.175 873.062 737.639 878.02 819.917C856.353 854.633 830.891 886.265 802.291 914.093C800.897 907.461 799.538 900.613 798.217 893.559C780.864 800.825 770.122 672.654 770.122 531.041C770.122 389.428 780.864 261.258 798.217 168.524C799.538 161.469 800.897 154.621 802.291 147.989ZM967.725 654.348C979.538 741.466 1003.58 819.818 1036.36 883.027C1036.06 886.632 1035.75 890.188 1035.44 893.693C1035.12 897.308 1034.8 900.869 1034.47 904.375C1032.7 900.723 1030.95 897.01 1029.24 893.237C999.725 828.441 978.072 746.304 967.725 654.348ZM952.537 654.348C942.19 746.304 920.536 828.441 891.024 893.237C889.306 897.01 887.561 900.723 885.791 904.375C885.462 900.869 885.137 897.308 884.818 893.693C884.509 890.188 884.205 886.632 883.905 883.027C916.678 819.818 940.724 741.466 952.537 654.348ZM969.496 656.974C981.999 734.356 1005.76 804.742 1037.89 863.638C1037.46 869.335 1037.02 874.925 1036.57 880.404C1004.76 818.384 981.297 741.918 969.496 656.974ZM950.765 656.974C938.964 741.918 915.505 818.384 883.687 880.404C883.237 874.925 882.798 869.335 882.369 863.638C914.505 804.742 938.263 734.356 950.765 656.974ZM949.211 657.833C936.821 733.814 913.557 802.985 882.177 861.065C881.84 856.53 881.51 851.928 881.187 847.261C912.741 792.087 936.226 727.832 949.211 657.833ZM971.051 657.833C984.036 727.833 1007.52 792.087 1039.08 847.261C1038.75 851.928 1038.42 856.53 1038.08 861.065C1006.7 802.985 983.441 733.814 971.051 657.833ZM972.007 655.305C985.279 720.064 1008.69 779.959 1040.07 832.366C1039.8 836.54 1039.53 840.666 1039.25 844.744C1007.96 789.524 984.735 725.27 972.007 655.305ZM948.254 655.305C935.527 725.27 912.302 789.524 881.014 844.744C880.735 840.666 880.461 836.54 880.194 832.366C911.575 779.959 934.983 720.064 948.254 655.305ZM974.377 659.829C988.062 717.944 1010.79 772.065 1040.82 820.274C1040.63 823.513 1040.43 826.725 1040.22 829.91C1010.22 779.366 987.624 721.893 974.377 659.829ZM945.885 659.829C932.638 721.893 910.042 779.366 880.037 829.91C879.835 826.725 879.636 823.513 879.441 820.274C909.469 772.065 932.199 717.944 945.885 659.829ZM1040.97 244.221C1045.85 326.079 1048.7 424.782 1048.7 531.041C1048.7 637.3 1045.85 736.003 1040.97 817.861C990.71 736.493 961.235 638.38 960.93 532.695C960.929 532.144 960.926 531.593 960.926 531.041C960.926 530.49 960.929 529.938 960.93 529.387C961.235 423.702 990.71 325.589 1040.97 244.221ZM879.295 244.221C929.551 325.589 959.027 423.702 959.332 529.387C959.333 529.938 959.334 530.49 959.334 531.041C959.334 531.593 959.333 532.144 959.332 532.695C959.027 638.38 929.551 736.493 879.295 817.861C874.412 736.003 871.56 637.3 871.56 531.041C871.56 424.782 874.412 326.079 879.295 244.221ZM1004.81 19.399C1005.8 19.399 1006.99 19.9616 1008.39 21.5672C1009.78 23.1631 1011.21 25.6203 1012.66 28.9779C1015.2 34.8797 1017.69 43.3131 1020.1 54.0834C991.402 115.022 969.506 247.777 962.18 410.831C964.159 317.472 968.388 234.059 974.184 168.39C978.28 121.988 983.153 84.4852 988.555 58.6042C991.257 45.6525 994.078 35.6819 996.97 28.9779C998.418 25.6203 999.851 23.1632 1001.24 21.5672C1002.63 19.9617 1003.83 19.3991 1004.81 19.399ZM915.447 19.399C916.434 19.3991 917.627 19.9617 919.023 21.5672C920.41 23.1632 921.842 25.6203 923.291 28.9779C926.182 35.6819 929.003 45.6525 931.706 58.6042C937.107 84.4852 941.981 121.988 946.077 168.39C951.873 234.059 956.103 317.472 958.081 410.831C950.756 247.777 928.86 115.022 900.164 54.0834C902.568 43.3132 905.058 34.8797 907.604 28.9779C909.052 25.6203 910.485 23.1631 911.872 21.5672C913.267 19.9616 914.46 19.399 915.447 19.399ZM1034.47 157.707C1034.8 161.213 1035.12 164.775 1035.44 168.39C1035.75 171.894 1036.06 175.449 1036.36 179.053C1003.58 242.264 979.537 320.618 967.724 407.739C978.071 315.781 999.724 233.643 1029.24 168.846C1030.96 165.073 1032.7 161.359 1034.47 157.707ZM885.791 157.707C887.561 161.359 889.306 165.073 891.024 168.846C920.537 233.643 942.191 315.781 952.538 407.739C940.725 320.618 916.679 242.264 883.905 179.053C884.205 175.449 884.509 171.894 884.818 168.39C885.137 164.774 885.462 161.213 885.791 157.707ZM1039.25 217.338C1039.53 221.416 1039.8 225.542 1040.07 229.716C1008.69 282.117 985.283 342.006 972.01 406.758C984.739 336.801 1007.96 272.553 1039.25 217.338ZM881.014 217.338C912.299 272.553 935.523 336.801 948.252 406.758C934.979 342.006 911.572 282.117 880.194 229.716C880.461 225.542 880.735 221.416 881.014 217.338ZM1021.07 58.6042C1023.2 68.7849 1025.24 80.764 1027.19 94.3756C996.101 163.581 972.961 274.609 963.818 405.648C968.109 314.426 976.969 232.929 989.021 168.524C997.7 122.146 1008.02 84.7005 1019.44 58.8836C1019.82 58.0203 1020.21 57.171 1020.59 56.3345C1020.75 57.0805 1020.91 57.8373 1021.07 58.6042ZM899.67 56.3345C900.054 57.1709 900.437 58.0204 900.819 58.8836C912.241 84.7005 922.561 122.146 931.239 168.524C943.291 232.929 952.153 314.426 956.444 405.648C947.301 274.609 924.16 163.581 893.076 94.3756C895.022 80.7641 897.064 68.7849 899.188 58.6042C899.348 57.8372 899.509 57.0806 899.67 56.3345ZM1036.57 181.678C1037.02 187.156 1037.46 192.745 1037.89 198.442C1005.76 257.341 981.997 327.732 969.494 405.119C981.295 320.17 1004.76 243.701 1036.57 181.678ZM883.687 181.678C915.506 243.701 938.967 320.17 950.767 405.119C938.265 327.732 914.507 257.341 882.369 198.442C882.798 192.745 883.237 187.156 883.687 181.678ZM1027.55 96.9812C1028.89 106.515 1030.18 116.82 1031.41 127.844C999.296 196.766 975.615 293.539 965.278 404.79C971.668 313.953 984.789 232.805 1002.61 168.641C1010.15 141.512 1018.51 117.447 1027.55 96.9812ZM892.708 96.9812C901.748 117.447 910.116 141.512 917.651 168.641C935.472 232.805 948.594 313.953 954.984 404.79C944.646 293.539 920.966 196.766 888.849 127.844C890.085 116.82 891.374 106.515 892.708 96.9812ZM1038.08 201.017C1038.42 205.552 1038.75 210.153 1039.08 214.82C1007.52 269.989 984.039 334.237 971.054 404.229C983.445 328.256 1006.71 259.092 1038.08 201.017ZM882.177 201.017C913.555 259.092 936.817 328.256 949.208 404.229C936.222 334.237 912.738 269.989 881.187 214.82C881.51 210.153 881.84 205.552 882.177 201.017ZM1031.71 130.527C1032.57 138.35 1033.41 146.525 1034.22 155.034C1001.88 220.973 978.064 306.777 966.791 403.605C975.278 313.284 992.571 232.6 1016.02 168.749C1020.98 155.224 1026.22 142.462 1031.71 130.527ZM888.552 130.527C894.039 142.462 899.278 155.224 904.244 168.749C927.69 232.6 944.984 313.284 953.471 403.605C942.198 306.777 918.381 220.973 886.043 155.034C886.852 146.525 887.689 138.35 888.552 130.527ZM1040.22 232.171C1040.43 235.357 1040.63 238.571 1040.82 241.811C1010.79 290.031 988.053 344.165 974.368 402.295C987.614 340.214 1010.21 282.727 1040.22 232.171ZM880.037 232.171C910.049 282.727 932.648 340.215 945.894 402.295C932.209 344.165 909.476 290.031 879.441 241.811C879.636 238.571 879.835 235.357 880.037 232.171ZM805.068 135.276C832.813 162.916 857.605 194.776 878.773 230.053C878.567 233.264 878.363 236.503 878.164 239.77C856.506 205.355 831.115 173.987 802.634 146.373C803.434 142.603 804.244 138.903 805.068 135.276ZM1115.19 135.276C1116.02 138.903 1116.83 142.603 1117.63 146.373C1089.15 173.987 1063.76 205.355 1042.1 239.77C1041.9 236.503 1041.69 233.264 1041.49 230.053C1062.66 194.776 1087.45 162.916 1115.19 135.276ZM1111.6 120.189C1112.69 124.56 1113.77 129.054 1114.83 133.668C1087.2 161.086 1062.48 192.664 1041.33 227.615C1041.06 223.41 1040.78 219.253 1040.5 215.146C1049.76 198.981 1059.72 183.602 1070.3 169.091C1083.17 151.453 1096.98 135.103 1111.6 120.189ZM808.664 120.189C823.285 135.103 837.088 151.453 849.958 169.091C860.546 183.602 870.502 198.981 879.764 215.146C879.48 219.253 879.202 223.41 878.93 227.615C857.777 192.664 833.062 161.086 805.437 133.668C806.495 129.054 807.569 124.56 808.664 120.189ZM1107.42 104.422C1108.7 108.99 1109.96 113.719 1111.2 118.605C1084.66 145.557 1060.82 177.202 1040.32 212.647C1040 207.948 1039.66 203.315 1039.32 198.751C1044.93 188.481 1050.8 178.563 1056.91 169.021C1072.31 144.96 1089.23 123.303 1107.42 104.422ZM812.841 104.422C831.028 123.303 847.949 144.96 863.353 169.021C869.462 178.563 875.33 188.481 880.945 198.751C880.602 203.315 880.266 207.948 879.938 212.647C859.441 177.202 835.598 145.557 809.065 118.605C810.301 113.719 811.56 108.99 812.841 104.422ZM1102.16 86.9316C1103.8 91.9916 1105.41 97.3058 1106.98 102.865C1081.7 128.997 1058.86 160.448 1039.12 196.198C1038.69 190.467 1038.24 184.846 1037.78 179.34C1039.61 175.826 1041.46 172.359 1043.34 168.94C1060.84 137.092 1080.61 109.471 1102.16 86.9316ZM818.102 86.9316C839.647 109.47 859.419 137.093 876.923 168.94C878.802 172.359 880.653 175.826 882.479 179.34C882.021 184.846 881.574 190.467 881.138 196.198C861.404 160.448 838.565 128.997 813.277 102.865C814.854 97.3058 816.463 91.9916 818.102 86.9316ZM1095.12 67.2397C1097.35 72.8588 1099.53 78.9296 1101.67 85.4296C1077.92 110.154 1056.34 140.981 1037.57 176.737C1036.94 169.378 1036.31 162.228 1035.65 155.296C1053.23 119.525 1073.27 89.7284 1095.12 67.2397ZM825.14 67.2397C846.991 89.7284 867.037 119.526 884.614 155.296C883.956 162.228 883.317 169.378 882.697 176.737C863.926 140.981 842.342 110.154 818.593 85.4296C820.727 78.9296 822.91 72.8588 825.14 67.2397ZM1086.35 47.9472C1088.13 51.312 1089.89 54.9598 1091.62 58.8836C1092.61 61.11 1093.58 63.423 1094.55 65.8206C1072.8 88.0874 1052.88 117.489 1035.39 152.655C1034.57 144.116 1033.72 135.917 1032.85 128.077C1045.86 100.215 1060.24 76.9775 1075.64 59.2351C1079.16 55.1791 1082.73 51.4133 1086.35 47.9472ZM833.912 47.9472C837.53 51.4131 841.1 55.1793 844.621 59.2351C860.024 76.9775 874.403 100.215 887.417 128.077C886.54 135.917 885.69 144.116 884.868 152.655C867.385 117.489 847.457 88.0874 825.709 65.8206C826.677 63.4231 827.653 61.1099 828.638 58.8836C830.374 54.9596 832.133 51.3121 833.912 47.9472ZM1172.12 87.4668C1173.68 90.7329 1175.23 94.1044 1176.76 97.5789C1156.31 111.827 1136.94 127.771 1118.81 145.23C1118.01 141.454 1117.19 137.748 1116.36 134.115C1133.84 116.829 1152.48 101.214 1172.12 87.4668ZM748.142 87.4668C767.78 101.214 786.422 116.829 803.9 134.115C803.071 137.748 802.255 141.454 801.449 145.23C783.32 127.771 763.95 111.827 743.503 97.5789C745.03 94.1044 746.577 90.7329 748.142 87.4668ZM1165.47 74.4287C1167.51 78.175 1169.52 82.0955 1171.5 86.1845C1151.96 99.8496 1133.4 115.356 1115.99 132.51C1114.93 127.894 1113.85 123.396 1112.74 119.022C1129.33 102.242 1146.96 87.3066 1165.47 74.4287ZM754.793 74.4287C773.306 87.3067 790.934 102.242 807.517 119.022C806.416 123.396 805.333 127.894 804.269 132.51C786.859 115.356 768.301 99.8496 748.76 86.1845C750.743 82.0955 752.754 78.175 754.793 74.4287ZM1074.06 29.6039C1078 33.9633 1081.88 39.6751 1085.67 46.6697C1066.33 65.1032 1048.42 91.8853 1032.55 125.431C1031.29 114.395 1029.98 104.091 1028.63 94.5758C1034.71 81.0705 1041.09 69.1867 1047.73 59.0857C1056.19 46.1966 1065 36.2941 1074.06 29.6039ZM846.199 29.6039C855.258 36.2941 864.071 46.1969 872.535 59.0857C879.168 69.1868 885.551 81.0703 891.636 94.5758C890.28 104.091 888.972 114.395 887.717 125.431C871.838 91.8854 853.936 65.1032 834.594 46.6697C838.383 39.675 842.259 33.9632 846.199 29.6039ZM1157.89 61.5097C1160.22 65.1857 1162.52 69.0845 1164.79 73.1972C1146.38 85.9927 1128.85 100.812 1112.34 117.442C1111.1 112.556 1109.83 107.826 1108.55 103.258C1124.12 87.2315 1140.62 73.238 1157.89 61.5097ZM762.374 61.5097C779.639 73.238 796.138 87.2315 811.716 103.258C810.427 107.826 809.161 112.556 807.917 117.442C791.414 100.812 773.879 85.9927 755.469 73.1972C757.738 69.0845 760.039 65.1857 762.374 61.5097ZM1148.53 48.1982C1151.16 51.5491 1153.76 55.1802 1156.32 59.0857C1156.59 59.4982 1156.86 59.9135 1157.13 60.3319C1139.98 71.9809 1123.59 85.8501 1108.11 101.707C1106.52 96.1543 1104.91 90.8453 1103.26 85.7899C1117.62 70.9231 1132.76 58.3081 1148.53 48.1982ZM771.728 48.1982C787.503 58.3081 802.643 70.9231 817.004 85.7899C815.356 90.8453 813.739 96.1543 812.154 101.707C796.672 85.8501 780.281 71.981 763.129 60.3319C763.399 59.9136 763.669 59.4981 763.939 59.0857C766.504 55.18 769.102 51.5492 771.728 48.1982ZM1220.18 59.2351C1222.41 61.7974 1224.61 64.4743 1226.79 67.2631C1209.92 76.0485 1193.61 85.9091 1177.93 96.7664C1176.4 93.2939 1174.85 89.9234 1173.28 86.6572C1188.24 76.2615 1203.77 66.949 1219.81 58.8054C1219.93 58.9486 1220.06 59.0912 1220.18 59.2351ZM700.453 58.8054C716.488 66.949 732.022 76.2615 746.981 86.6572C745.413 89.9234 743.864 93.2939 742.334 96.7664C726.651 85.909 710.337 76.0485 693.469 67.2631C695.65 64.4745 697.852 61.7972 700.076 59.2351C700.201 59.0911 700.328 58.9488 700.453 58.8054ZM1055.53 19.399C1061.37 19.399 1067.24 22.4276 1073.11 28.5736C1057 40.5301 1041.88 62.2773 1028.26 92.0121C1026.13 77.4332 1023.9 64.7746 1021.56 54.2484C1026.62 43.5746 1031.86 35.2218 1037.22 29.3676C1043.32 22.688 1049.45 19.3991 1055.53 19.399ZM864.728 19.399C870.812 19.3991 876.937 22.688 883.045 29.3676C888.399 35.2219 893.637 43.5744 898.698 54.2484C896.366 64.7747 894.128 77.4332 892.005 92.0121C878.382 62.2775 863.265 40.5303 847.155 28.5736C853.017 22.4279 858.891 19.399 864.728 19.399ZM1209.9 48.3593C1212.92 51.2713 1215.9 54.3912 1218.85 57.7145C1202.94 65.8153 1187.52 75.0624 1172.66 85.3739C1170.68 81.2901 1168.66 77.373 1166.62 73.6279C1180.57 64.0073 1195.02 55.5535 1209.9 48.3593ZM710.361 48.3593C725.24 55.5536 739.689 64.0072 753.639 73.6279C751.597 77.373 749.584 81.29 747.6 85.3739C732.746 75.0624 717.326 65.8153 701.412 57.7145C704.361 54.3912 707.345 51.2713 710.361 48.3593ZM1136.37 34.8827C1140.18 38.3835 1143.95 42.4606 1147.66 47.0965C1132.02 57.1389 1117.01 69.622 1102.76 84.2937C1100.62 77.8104 1098.43 71.7536 1096.19 66.1468C1109.01 53.1252 1122.45 42.615 1136.37 34.8827ZM783.896 34.8827C797.814 42.6151 811.25 53.1252 824.072 66.1468C821.831 71.7536 819.64 77.8103 817.497 84.2937C803.256 69.622 788.245 57.1389 772.6 47.0965C776.311 42.4606 780.079 38.3835 783.896 34.8827ZM1198.77 38.6808C1202.16 41.3082 1205.51 44.1944 1208.82 47.3299C1194.09 54.4867 1179.77 62.871 1165.95 72.3963C1163.68 68.2922 1161.38 64.3994 1159.04 60.7255C1171.89 52.0932 1185.15 44.713 1198.77 38.6808ZM721.487 38.6808C735.109 44.713 748.374 52.0932 761.217 60.7255C758.883 64.3994 756.582 68.2922 754.315 72.3963C740.491 62.871 726.176 54.4868 711.438 47.3299C714.751 44.1944 718.1 41.3082 721.487 38.6808ZM1260.3 41.1527C1263.41 43.225 1266.5 45.4383 1269.56 47.7889C1255.4 53.3461 1241.55 59.6344 1228.05 66.6088C1225.76 63.667 1223.44 60.8469 1221.1 58.153C1233.86 51.7309 1246.94 46.0503 1260.3 41.1527ZM659.962 41.1527C673.321 46.0503 686.401 51.7309 699.166 58.153C696.822 60.8469 694.503 63.667 692.208 66.6088C678.713 59.6345 664.864 53.346 650.7 47.7889C653.76 45.4383 656.847 43.225 659.962 41.1527ZM1121.71 24.4248C1126.28 26.7771 1130.81 29.9419 1135.27 33.8914C1121.52 41.5874 1108.27 51.957 1095.62 64.7346C1092.95 58.1558 1090.2 52.2151 1087.4 46.949C1098.45 36.572 1109.92 28.9807 1121.71 24.4248ZM798.555 24.4248C810.343 28.9808 821.815 36.572 832.859 46.949C830.058 52.2151 827.317 58.1558 824.641 64.7346C811.995 51.957 798.739 41.5875 784.997 33.8914C789.455 29.9419 793.978 26.777 798.555 24.4248ZM1185.28 29.6918C1189.4 31.9947 1193.48 34.6721 1197.51 37.7139C1184.07 43.7191 1170.97 51.0279 1158.29 59.5496C1155.48 55.1942 1152.62 51.1561 1149.72 47.4461C1161.26 40.158 1173.13 34.2063 1185.28 29.6918ZM734.98 29.6918C747.133 34.2064 759.006 40.158 770.543 47.4461C767.642 51.1561 764.782 55.1942 761.97 59.5496C749.289 51.0279 736.195 43.7191 722.749 37.7139C726.778 34.6721 730.857 31.9947 734.98 29.6918ZM1247.13 33.3191C1251.07 35.3898 1254.98 37.6836 1258.84 40.1926C1245.65 45.0682 1232.74 50.7052 1220.14 57.0611C1217.21 53.7485 1214.24 50.6317 1211.24 47.7157C1222.95 42.1235 1234.93 37.3089 1247.13 33.3191ZM673.131 33.3191C685.335 37.309 697.308 42.1235 709.017 47.7157C706.017 50.6317 703.052 53.7485 700.124 57.0611C687.52 50.7052 674.609 45.0682 661.424 40.1926C665.287 37.6836 669.189 35.3898 673.131 33.3191ZM1297.72 29.6928C1301.57 31.122 1305.38 32.6961 1309.17 34.41C1296.25 38.0899 1283.55 42.3618 1271.09 47.1971C1268.06 44.8501 1265.01 42.6371 1261.93 40.5589C1273.65 36.3235 1285.59 32.6918 1297.72 29.6928ZM622.544 29.6928C634.67 32.6918 646.608 36.3234 658.333 40.5589C655.253 42.6371 652.2 44.8501 649.176 47.1971C636.714 42.3618 624.01 38.0899 611.089 34.41C614.878 32.6962 618.696 31.122 622.544 29.6928ZM1232.52 26.7346C1236.85 28.3672 1241.14 30.2641 1245.39 32.4196C1233.42 36.3976 1221.66 41.1652 1210.17 46.6795C1206.9 43.5595 1203.58 40.6791 1200.23 38.045C1210.79 33.4508 1221.56 29.6655 1232.52 26.7346ZM687.739 26.7346C698.697 29.6655 709.472 33.4508 720.034 38.045C716.681 40.6791 713.366 43.5595 710.093 46.6795C698.598 41.1652 686.846 36.3976 674.87 32.4196C679.118 30.2641 683.409 28.3672 687.739 26.7346ZM1168.09 22.367C1173.34 23.9202 1178.53 26.0746 1183.66 28.807C1171.76 33.3195 1160.14 39.1961 1148.85 46.3425C1145.18 41.7551 1141.45 37.6896 1137.66 34.1736C1147.58 28.7974 1157.74 24.8285 1168.09 22.367ZM752.173 22.367C762.526 24.8286 772.685 28.7974 782.603 34.1736C778.81 37.6896 775.079 41.755 771.416 46.3425C760.121 39.1961 748.5 33.3196 736.604 28.807C741.73 26.0747 746.922 23.9202 752.173 22.367ZM1102.02 19.399C1108.09 19.3991 1114.09 20.8172 1120.01 23.5917C1108.54 28.2285 1097.41 35.6792 1086.72 45.6784C1082.98 38.8177 1079.14 33.1563 1075.2 28.7806C1083.95 22.5947 1092.92 19.399 1102.02 19.399ZM818.237 19.399C827.34 19.399 836.311 22.5944 845.059 28.7806C841.127 33.1563 837.283 38.8176 833.543 45.6784C822.848 35.6792 811.718 28.2286 800.251 23.5917C806.17 20.8175 812.174 19.3991 818.237 19.399ZM1281.14 24.4795C1285.92 25.7141 1290.66 27.1683 1295.36 28.8373C1283.54 31.8319 1271.91 35.4258 1260.48 39.591C1256.69 37.0934 1252.86 34.8001 1248.99 32.7194C1259.54 29.3481 1270.27 26.592 1281.14 24.4795ZM639.12 24.4795C649.994 26.592 660.719 29.3481 671.272 32.7194C667.404 34.8001 663.575 37.0934 659.785 39.591C648.353 35.4258 636.718 31.8319 624.902 28.8373C629.602 27.1683 634.342 25.7141 639.12 24.4795ZM1215.06 21.6482C1220.17 22.704 1225.23 24.1262 1230.25 25.9034C1219.64 28.8427 1209.2 32.5796 1198.97 37.0694C1195.03 34.0569 1191.04 31.3824 1187.01 29.0619C1196.21 25.754 1205.57 23.2697 1215.06 21.6482ZM705.204 21.6482C714.697 23.2697 724.056 25.754 733.256 29.0619C729.219 31.3824 725.23 34.0569 721.292 37.0694C711.06 32.5796 700.626 28.8427 690.015 25.9034C695.029 24.1262 700.094 22.7039 705.204 21.6482ZM1329.15 23.4179C1333.53 24.2782 1337.88 25.2732 1342.2 26.4015C1331.76 28.4988 1321.44 30.9777 1311.25 33.823C1307.57 32.1183 1303.86 30.543 1300.13 29.1049C1309.69 26.8106 1319.37 24.9112 1329.15 23.4179ZM591.11 23.4179C600.893 24.9112 610.573 26.8106 620.136 29.1049C616.398 30.543 612.689 32.1183 609.007 33.823C598.823 30.9777 588.505 28.4988 578.066 26.4015C582.386 25.2732 586.735 24.2782 591.11 23.4179ZM1147.91 19.399C1153.78 19.3991 1159.59 20.1469 1165.34 21.6111C1155.55 24.1647 1145.94 28.0471 1136.56 33.1745C1132.27 29.3265 1127.9 26.1799 1123.46 23.7695C1131.48 20.8829 1139.64 19.399 1147.91 19.399ZM772.348 19.399C780.619 19.399 788.782 20.8827 796.801 23.7695C792.364 26.1798 787.994 29.3265 783.701 33.1745C774.32 28.0471 764.715 24.1647 754.924 21.6111C760.669 20.147 766.481 19.3991 772.348 19.399ZM1262.96 20.8767C1268 21.5729 1273 22.5143 1277.96 23.6904C1267.58 25.8206 1257.34 28.5329 1247.26 31.8053C1243.16 29.6733 1239.02 27.779 1234.84 26.1281C1244.09 23.7617 1253.47 22.0013 1262.96 20.8767ZM657.303 20.8767C666.792 22.0014 676.17 23.7616 685.419 26.1281C681.239 27.779 677.099 29.6734 673 31.8053C662.92 28.5329 652.682 25.8206 642.306 23.6904C647.267 22.5143 652.267 21.5729 657.303 20.8767ZM1309.43 20.4831C1314.67 21.014 1319.87 21.7382 1325.04 22.6512C1315.86 24.1571 1306.78 26.0194 1297.79 28.2288C1293.34 26.5867 1288.85 25.135 1284.32 23.8799C1292.61 22.3697 1300.98 21.2337 1309.43 20.4831ZM610.836 20.4831C619.284 21.2337 627.655 22.3697 635.942 23.8799C631.414 25.135 626.922 26.5867 622.467 28.2288C613.484 26.0194 604.397 24.1571 595.217 22.6512C600.388 21.7382 605.595 21.014 610.836 20.4831ZM1193.19 19.399C1199.26 19.3991 1205.27 19.9141 1211.22 20.9255C1202.49 22.6221 1193.87 25.0444 1185.4 28.1585C1180.6 25.5213 1175.74 23.38 1170.82 21.7557C1178.19 20.1969 1185.65 19.399 1193.19 19.399ZM727.067 19.399C734.611 19.399 742.076 20.1968 749.446 21.7557C744.525 23.3799 739.663 25.5214 734.867 28.1585C726.389 25.0444 717.774 22.6221 709.04 20.9255C714.992 19.9142 721.005 19.3991 727.067 19.399ZM1356.57 20.3327C1361.06 20.7025 1365.53 21.1804 1369.97 21.7664C1361.68 22.8708 1353.46 24.2137 1345.31 25.7882C1341.3 24.6856 1337.26 23.6962 1333.2 22.8231C1340.93 21.736 1348.72 20.9048 1356.57 20.3327ZM563.696 20.3327C571.543 20.9048 579.332 21.7359 587.058 22.8231C582.998 23.6962 578.962 24.6856 574.951 25.7882C566.801 24.2137 558.579 22.8709 550.29 21.7664C554.737 21.1804 559.206 20.7025 563.696 20.3327ZM1241.5 19.399C1246.82 19.399 1252.11 19.67 1257.36 20.2048C1249.01 21.4106 1240.75 23.1044 1232.6 25.2677C1228.05 23.5709 1223.45 22.1627 1218.82 21.0525C1226.3 19.9583 1233.87 19.399 1241.5 19.399ZM678.762 19.399C686.395 19.399 693.96 19.9582 701.444 21.0525C696.808 22.1627 692.213 23.5709 687.663 25.2677C679.508 23.1044 671.251 21.4106 662.903 20.2048C668.153 19.67 673.441 19.399 678.762 19.399ZM1287.99 19.399C1292.64 19.399 1297.26 19.5524 1301.87 19.8532C1294.92 20.6596 1288.03 21.7255 1281.19 23.0448C1276.96 21.9589 1272.69 21.0447 1268.39 20.3054C1274.88 19.7053 1281.41 19.399 1287.99 19.399ZM632.271 19.399C638.85 19.399 645.384 19.7052 651.868 20.3054C647.573 21.0447 643.307 21.9589 639.07 23.0448C632.236 21.7255 625.343 20.6596 618.396 19.8532C622.997 19.5524 627.623 19.399 632.271 19.399ZM1333.88 19.399C1338.37 19.399 1342.84 19.5096 1347.28 19.7252C1341.21 20.3276 1335.18 21.0871 1329.18 21.9979C1325.04 21.1888 1320.87 20.5003 1316.69 19.9342C1322.39 19.5792 1328.12 19.399 1333.88 19.399ZM586.379 19.399C592.142 19.399 597.875 19.5791 603.575 19.9342C599.388 20.5002 595.224 21.1888 591.083 21.9979C585.086 21.0871 579.05 20.3277 572.977 19.7252C577.425 19.5096 581.893 19.399 586.379 19.399ZM1382.18 19.399C1385.07 19.399 1387.95 19.4353 1390.82 19.5055C1385.6 19.9424 1380.41 20.475 1375.24 21.0984C1371.98 20.6075 1368.71 20.173 1365.43 19.7975C1370.98 19.5333 1376.57 19.399 1382.18 19.399ZM538.081 19.399C543.692 19.399 549.278 19.5332 554.836 19.7975C551.552 20.1729 548.281 20.6075 545.022 21.0984C539.854 20.475 534.662 19.9424 529.445 19.5055C532.316 19.4353 535.195 19.399 538.081 19.399Z" fill="url(#paint0_radial_6009_2601)"/>
</g>
<defs>
<filter id="filter0_i_6009_2601" x="0" y="-11.0009" width="1919" height="244.001" filterUnits="userSpaceOnUse" color-interpolation-filters="sRGB">
<feFlood flood-opacity="0" result="BackgroundImageFix"/>
<feBlend mode="normal" in="SourceGraphic" in2="BackgroundImageFix" result="shape"/>
<feColorMatrix in="SourceAlpha" type="matrix" values="0 0 0 0 0 0 0 0 0 0 0 0 0 0 0 0 0 0 127 0" result="hardAlpha"/>
<feOffset dy="-11.0009"/>
<feGaussianBlur stdDeviation="11.6509"/>
<feComposite in2="hardAlpha" operator="arithmetic" k2="-1" k3="1"/>
<feColorMatrix type="matrix" values="0 0 0 0 0 0 0 0 0 0 0 0 0 0 0 0 0 0 0.1 0"/>
<feBlend mode="normal" in2="shape" result="effect1_innerShadow_6009_2601"/>
</filter>
<radialGradient id="paint0_radial_6009_2601" cx="0" cy="0" r="1" gradientUnits="userSpaceOnUse" gradientTransform="translate(954.5 54.4999) rotate(90) scale(185.5 2890.31)">
<stop stop-color="white"/>
<stop offset="0.550817" stop-color="#A9A9A9" stop-opacity="0.2"/>
<stop offset="1" stop-opacity="0.02"/>
</radialGradient>
<clipPath id="clip0_6009_2601">
<rect width="1919" height="233" fill="white"/>
</clipPath>
</defs>
</svg>
