<svg width="126" height="34" viewBox="0 0 126 34" fill="none" xmlns="http://www.w3.org/2000/svg">
<path d="M34.9002 14.398C36.4421 14.9317 37.8514 14.6664 37.8514 15.9762C37.8514 17.286 35.9116 16.3544 33.6899 18.145C31.4682 19.9356 30.8051 22.3231 29.346 25.3571C27.887 28.3912 25.5161 34.1941 21.4541 33.2988C17.3921 32.4035 18.7682 25.7053 18.6853 22.9697C18.6024 20.234 18.2377 18.1781 16.0657 17.9294C13.8938 17.6807 12.6337 19.3387 11.3737 21.3448C10.1136 23.351 9.05251 27.5125 6.05158 26.6172C3.05066 25.7219 5.10654 20.2008 4.09518 18.5595C3.08382 16.9181 1.74087 16.8881 1.26006 16.8881C0.779245 16.8881 4.47979e-06 16.6394 0 15.9928C-4.47979e-06 15.3462 0.696347 15.1638 1.26006 15.1638C1.82377 15.1638 2.52522 15.2544 3.94596 14.8622C7.47743 13.8873 7.02978 6.38999 11.0421 6.58894C14.8194 6.77624 12.8658 14.6135 16.4636 14.6135C20.0614 14.6135 21.2552 10.4188 22.7473 7.28529C24.2395 4.15174 27.1078 -0.5569 30.8051 0.272075C34.5023 1.10105 33.2257 7.9982 32.9936 10.1701C32.7615 12.3421 33.3583 13.8642 34.9002 14.398Z" fill="#F4F3F1"/>
<path d="M67.4255 27.2156L67.8686 27.6218C68.2748 27.991 68.4225 28.2126 68.4225 28.5818C68.4225 29.0988 68.0163 29.4311 67.3886 29.4311H61.6652C61.0744 29.4311 60.6313 29.0988 60.6313 28.5818C60.6313 28.2126 60.816 27.991 61.1852 27.6218L61.6283 27.2156C62.2191 26.7356 62.5884 26.071 62.5884 24.8155V17.6891H49.5909V24.8155C49.5909 25.7756 49.7386 26.551 50.514 27.2156L50.9571 27.6218C51.3633 27.991 51.511 28.2126 51.511 28.5818C51.511 29.0988 51.1048 29.4311 50.4771 29.4311H44.7537C44.1629 29.4311 43.7198 29.0988 43.7198 28.5818C43.7198 28.2126 43.8675 27.991 44.2737 27.6218L44.7168 27.2156C45.3076 26.7356 45.6769 26.071 45.6769 24.8155V8.75328C45.6769 7.71939 45.4184 6.94397 44.7168 6.35318L44.2737 5.94701C43.9045 5.57776 43.7198 5.35621 43.7198 5.02389C43.7198 4.47002 44.1629 4.1377 44.7537 4.1377H50.4771C51.1048 4.1377 51.511 4.47002 51.511 5.02389C51.511 5.35621 51.3633 5.57776 50.9571 5.94701L50.514 6.35318C49.9601 6.87012 49.5909 7.46092 49.5909 8.75328V15.4736H62.5884V8.75328C62.5884 7.75632 62.3299 6.94397 61.6283 6.35318L61.1852 5.94701C60.779 5.57776 60.6313 5.35621 60.6313 5.02389C60.6313 4.47002 61.0744 4.1377 61.6652 4.1377H67.3886C68.0163 4.1377 68.4225 4.47002 68.4225 5.02389C68.4225 5.35621 68.2748 5.57776 67.8686 5.94701L67.4255 6.35318C66.7978 6.87012 66.5024 7.57169 66.5024 8.75328V24.8155C66.5024 25.6648 66.6501 26.551 67.4255 27.2156Z" fill="#F4F3F1"/>
<path d="M87.5042 24.5198C87.9842 24.5198 88.2058 24.926 88.2058 25.2953C88.2058 25.7753 87.9104 26.1815 87.4673 26.5876C85.5472 28.5077 82.9625 29.4308 80.4146 29.4308C75.1344 29.4308 71.442 25.8491 71.442 20.1997C71.442 14.5133 75.356 10.5254 80.71 10.5254C85.141 10.5254 88.2058 13.184 88.2058 17.0611C88.2058 18.6857 87.2826 19.6458 86.0272 19.6458H75.2452C75.3929 24.2244 77.9038 26.7353 81.5593 26.7353C83.4794 26.7353 85.141 26.0338 86.4703 24.9629C86.8395 24.7045 87.2088 24.5198 87.5042 24.5198ZM80.4516 12.3347C77.793 12.3347 75.7991 14.4763 75.319 17.8365H82.9625C83.9225 17.8365 84.6241 17.4672 84.6241 16.4333C84.6241 14.4763 83.4425 12.3347 80.4516 12.3347Z" fill="#F4F3F1"/>
<path d="M107.398 16.9503V24.5568C107.398 26.8092 109.614 25.9968 109.614 27.1415C109.614 27.5477 109.281 27.88 108.617 28.2492C107.657 28.8031 106.254 29.357 105.331 29.357C104.444 29.357 104.038 28.6923 104.038 27.4738V26.1815H103.89C102.413 27.9169 100.013 29.4308 97.2071 29.4308C93.5885 29.4308 91.2253 27.5846 91.2253 24.4091C91.2253 20.1997 95.2501 18.1319 103.669 17.8365V16.9503C103.669 14.1071 102.007 12.4085 99.5333 12.4085C95.287 12.4085 96.4686 16.0272 93.9577 16.0272C92.9977 16.0272 92.2222 15.5102 92.2222 14.4025C92.2222 12.187 95.8778 10.5254 99.7549 10.5254C104.777 10.5254 107.398 12.7778 107.398 16.9503ZM98.4994 27.1046C101.232 27.1046 103.669 24.8891 103.669 22.8213V19.6089C98.241 19.8304 94.9916 20.9751 94.9916 23.966C94.9916 25.9599 96.4317 27.1046 98.4994 27.1046Z" fill="#F4F3F1"/>
<path d="M123.415 10.8584C125.077 10.8584 126 12.04 126 13.3693C126 14.5139 125.114 15.5109 124.191 15.5109C123.083 15.5109 122.898 14.1447 121.495 14.1447C119.797 14.1447 118.061 16.3602 118.061 18.6495V24.8898C118.061 26.256 118.246 26.7729 118.763 27.2899L119.169 27.6591C119.575 28.0653 119.723 28.2868 119.723 28.6192C119.723 29.173 119.354 29.4315 118.689 29.4315H113.667C113.003 29.4315 112.633 29.173 112.633 28.6192C112.633 28.3238 112.781 28.0653 113.187 27.6591L113.593 27.2899C114.147 26.7729 114.332 26.256 114.332 24.8898V16.2125C114.332 15.1047 114.147 14.5878 113.63 14.1078L113.113 13.7016C112.818 13.4431 112.633 13.2216 112.633 12.8523C112.633 12.4092 112.929 12.0769 113.483 11.9292L116.178 11.043C116.437 10.9692 116.732 10.9322 116.917 10.9322C117.507 10.9322 117.84 11.3384 117.84 11.8554V15.0309H117.914C119.021 12.7785 121.532 10.8584 123.415 10.8584Z" fill="#F4F3F1"/>
</svg>
