<svg width="217" height="74" viewBox="0 0 217 74" fill="none" xmlns="http://www.w3.org/2000/svg">
<path d="M65.1812 33.3039C67.5582 34.1267 69.7307 33.7177 69.7307 35.7369C69.7307 37.7561 66.7403 36.3199 63.3154 39.0803C59.8904 41.8406 58.8681 45.5212 56.6188 50.1985C54.3696 54.8759 50.7146 63.8216 44.4526 62.4414C38.1906 61.0612 40.312 50.7353 40.1842 46.518C40.0564 42.3007 39.4941 39.1314 36.1459 38.748C32.7976 38.3646 30.8551 40.9205 28.9126 44.0132C26.9701 47.1059 25.3343 53.5213 20.708 52.141C16.0818 50.7608 19.2512 42.2496 17.692 39.7192C16.1329 37.1889 14.0626 37.1427 13.3214 37.1427C12.5802 37.1427 11.3789 36.7593 11.3789 35.7625C11.3789 34.7656 12.4524 34.4845 13.3214 34.4845C14.1904 34.4845 15.2718 34.6241 17.462 34.0195C22.9061 32.5167 22.216 20.9587 28.4014 21.2654C34.2245 21.5542 31.2129 33.6361 36.7593 33.6361C42.3056 33.6361 44.1459 27.1696 46.4462 22.3389C48.7466 17.5083 53.1683 10.2494 58.8681 11.5274C64.5678 12.8053 62.5997 23.438 62.2419 26.7862C61.884 30.1345 62.8042 32.4811 65.1812 33.3039Z" fill="#FF7056"/>
<path d="M115.322 53.0626L116.005 53.6887C116.631 54.258 116.859 54.5995 116.859 55.1687C116.859 55.9657 116.233 56.478 115.265 56.478H106.442C105.531 56.478 104.848 55.9657 104.848 55.1687C104.848 54.5995 105.133 54.258 105.702 53.6887L106.385 53.0626C107.296 52.3226 107.865 51.298 107.865 49.3626V38.3764H87.8283V49.3626C87.8283 50.8426 88.0559 52.038 89.2513 53.0626L89.9344 53.6887C90.5606 54.258 90.7883 54.5995 90.7883 55.1687C90.7883 55.9657 90.1621 56.478 89.1944 56.478H80.3713C79.4605 56.478 78.7775 55.9657 78.7775 55.1687C78.7775 54.5995 79.0052 54.258 79.6313 53.6887L80.3144 53.0626C81.2252 52.3226 81.7944 51.298 81.7944 49.3626V24.601C81.7944 23.0071 81.3959 21.8118 80.3144 20.901L79.6313 20.2748C79.0621 19.7056 78.7775 19.3641 78.7775 18.8518C78.7775 17.9979 79.4605 17.4856 80.3713 17.4856H89.1944C90.1621 17.4856 90.7883 17.9979 90.7883 18.8518C90.7883 19.3641 90.5606 19.7056 89.9344 20.2748L89.2513 20.901C88.3975 21.6979 87.8283 22.6087 87.8283 24.601V34.961H107.865V24.601C107.865 23.0641 107.467 21.8118 106.385 20.901L105.702 20.2748C105.076 19.7056 104.848 19.3641 104.848 18.8518C104.848 17.9979 105.531 17.4856 106.442 17.4856H115.265C116.233 17.4856 116.859 17.9979 116.859 18.8518C116.859 19.3641 116.631 19.7056 116.005 20.2748L115.322 20.901C114.354 21.6979 113.899 22.7795 113.899 24.601V49.3626C113.899 50.6718 114.127 52.038 115.322 53.0626Z" fill="white"/>
<path d="M146.275 48.9071C147.015 48.9071 147.357 49.5333 147.357 50.1025C147.357 50.8425 146.902 51.4687 146.219 52.0948C143.259 55.0548 139.274 56.4779 135.346 56.4779C127.206 56.4779 121.514 50.9564 121.514 42.2471C121.514 33.481 127.548 27.3333 135.802 27.3333C142.632 27.3333 147.357 31.4317 147.357 37.4087C147.357 39.9133 145.934 41.3933 143.999 41.3933H127.377C127.605 48.4518 131.475 52.3225 137.111 52.3225C140.071 52.3225 142.632 51.241 144.682 49.5902C145.251 49.1918 145.82 48.9071 146.275 48.9071ZM135.403 30.1225C131.305 30.1225 128.231 33.424 127.491 38.604H139.274C140.754 38.604 141.835 38.0348 141.835 36.441C141.835 33.424 140.014 30.1225 135.403 30.1225Z" fill="white"/>
<path d="M176.944 37.2379V48.9641C176.944 52.4364 180.36 51.1841 180.36 52.9487C180.36 53.5748 179.847 54.0871 178.823 54.6564C177.343 55.5102 175.18 56.3641 173.757 56.3641C172.39 56.3641 171.764 55.3395 171.764 53.461V51.4687H171.537C169.26 54.1441 165.56 56.4779 161.234 56.4779C155.655 56.4779 152.012 53.6318 152.012 48.7364C152.012 42.2471 158.217 39.0594 171.195 38.604V37.2379C171.195 32.8548 168.634 30.2363 164.82 30.2363C158.274 30.2363 160.095 35.8148 156.224 35.8148C154.744 35.8148 153.549 35.0179 153.549 33.3102C153.549 29.8948 159.184 27.3333 165.161 27.3333C172.903 27.3333 176.944 30.8056 176.944 37.2379ZM163.226 52.8918C167.438 52.8918 171.195 49.4764 171.195 46.2887V41.3364C162.827 41.6779 157.818 43.4425 157.818 48.0533C157.818 51.1271 160.038 52.8918 163.226 52.8918Z" fill="white"/>
<path d="M201.636 27.8457C204.198 27.8457 205.621 29.6672 205.621 31.7165C205.621 33.4811 204.255 35.018 202.831 35.018C201.124 35.018 200.839 32.9119 198.676 32.9119C196.058 32.9119 193.382 36.3273 193.382 39.8565V49.4765C193.382 51.5827 193.667 52.3796 194.464 53.1765L195.09 53.7457C195.716 54.3719 195.944 54.7134 195.944 55.2257C195.944 56.0796 195.375 56.4781 194.35 56.4781H186.608C185.584 56.4781 185.015 56.0796 185.015 55.2257C185.015 54.7704 185.242 54.3719 185.868 53.7457L186.495 53.1765C187.348 52.3796 187.633 51.5827 187.633 49.4765V36.0996C187.633 34.3919 187.348 33.5949 186.551 32.8549L185.755 32.2288C185.299 31.8303 185.015 31.4888 185.015 30.9196C185.015 30.2365 185.47 29.7242 186.324 29.4965L190.479 28.1303C190.878 28.0165 191.333 27.9595 191.618 27.9595C192.528 27.9595 193.041 28.5857 193.041 29.3826V34.278H193.155C194.862 30.8057 198.733 27.8457 201.636 27.8457Z" fill="white"/>
</svg>
