<svg width="106" height="17" viewBox="0 0 106 17" fill="none" xmlns="http://www.w3.org/2000/svg">
<path d="M0.99425 12C0.861954 12 0.790718 11.9186 0.790718 11.7965V5.07993C0.790718 4.95781 0.861954 4.8764 0.99425 4.8764H3.89457C5.4923 4.8764 6.46925 5.79229 6.46925 7.21701C6.46925 8.64173 5.4923 9.54744 3.89457 9.54744H2.04244V11.7965C2.04244 11.9186 1.96102 12 1.83891 12H0.99425ZM2.04244 8.39749H3.95563C4.73923 8.39749 5.20735 7.97008 5.20735 7.21701C5.20735 6.45377 4.73923 6.02635 3.95563 6.02635H2.04244V8.39749ZM9.96077 12.1526C8.24093 12.1526 7.11133 10.9925 7.11133 9.23197C7.11133 7.4816 8.24093 6.34182 9.96077 6.34182C11.6806 6.34182 12.8102 7.4816 12.8102 9.23197C12.8102 10.9925 11.6806 12.1526 9.96077 12.1526ZM9.96077 11.135C10.9682 11.135 11.6297 10.3921 11.6297 9.24215C11.6297 8.10237 10.9682 7.35948 9.96077 7.35948C8.95329 7.35948 8.29181 8.10237 8.29181 9.24215C8.29181 10.3921 8.95329 11.135 9.96077 11.135ZM15.1612 11.9898C15.0798 11.9898 15.0188 11.9288 14.9882 11.8575L13.1666 6.80994C13.1056 6.64712 13.2073 6.50465 13.3803 6.50465H14.2046C14.2861 6.50465 14.3573 6.56571 14.3878 6.64712L15.7006 10.7381L17.0236 6.64712C17.0541 6.56571 17.1253 6.50465 17.2067 6.50465H17.9903C18.0717 6.50465 18.143 6.56571 18.1735 6.64712L19.4965 10.7381L20.8092 6.64712C20.8296 6.56571 20.911 6.50465 20.9924 6.50465H21.8065C21.9795 6.50465 22.0813 6.64712 22.0203 6.80994L20.2088 11.8575C20.1783 11.9288 20.1172 11.9898 20.0358 11.9898H19.0283C18.9469 11.9898 18.8757 11.9288 18.8553 11.8575L17.5934 8.29573L16.3417 11.8575C16.3214 11.9288 16.2501 11.9898 16.1687 11.9898H15.1612ZM25.2763 12.1628C23.5361 12.1628 22.3861 11.0129 22.3861 9.25232C22.3861 7.46125 23.4445 6.34182 25.1033 6.34182C26.5992 6.34182 27.566 7.50195 27.5558 9.53727C27.5558 9.64921 27.4642 9.73062 27.3523 9.73062H23.6073C23.6582 10.5956 24.3604 11.2164 25.378 11.2164C25.8869 11.2164 26.5382 11.0638 27.0267 10.8399C27.1386 10.789 27.2607 10.85 27.2607 10.9722V11.654C27.2607 11.7252 27.22 11.7965 27.1488 11.827C26.6705 12.0305 25.9276 12.1628 25.2763 12.1628ZM23.6073 8.87579H26.4466C26.4466 7.93955 25.8869 7.32895 25.1033 7.32895C24.2688 7.32895 23.6582 7.97008 23.6073 8.87579ZM28.8208 11.9898C28.7089 11.9898 28.6173 11.8982 28.6173 11.7863V6.70818C28.6173 6.59624 28.7089 6.50465 28.8208 6.50465H29.5942C29.7062 6.50465 29.7978 6.59624 29.7978 6.70818V7.46125C30.2252 6.63694 31.1004 6.39271 31.7924 6.352C31.9145 6.34182 32.0061 6.43341 32.0061 6.55553V7.28824C32.0061 7.40019 31.9145 7.49178 31.7924 7.49178C30.3473 7.50195 29.7978 8.23467 29.7978 8.96738V11.7863C29.7978 11.8982 29.7062 11.9898 29.5942 11.9898H28.8208ZM34.9957 12.1628C33.2555 12.1628 32.1056 11.0129 32.1056 9.25232C32.1056 7.46125 33.1639 6.34182 34.8227 6.34182C36.3187 6.34182 37.2854 7.50195 37.2753 9.53727C37.2753 9.64921 37.1837 9.73062 37.0717 9.73062H33.3267C33.3776 10.5956 34.0798 11.2164 35.0975 11.2164C35.6063 11.2164 36.2576 11.0638 36.7461 10.8399C36.858 10.789 36.9801 10.85 36.9801 10.9722V11.654C36.9801 11.7252 36.9394 11.7965 36.8682 11.827C36.3899 12.0305 35.647 12.1628 34.9957 12.1628ZM33.3267 8.87579H36.166C36.166 7.93955 35.6063 7.32895 34.8227 7.32895C33.9882 7.32895 33.3776 7.97008 33.3267 8.87579ZM40.6738 12.1526C39.0965 12.1526 38.0585 10.9925 38.0585 9.23197C38.0585 7.4816 39.0965 6.34182 40.6738 6.34182C41.4778 6.34182 42.18 6.71836 42.5056 7.3086V4.06227C42.5056 3.95033 42.5972 3.85874 42.7092 3.85874H43.4928C43.6047 3.85874 43.6963 3.95033 43.6963 4.06227V11.7965C43.6963 11.9084 43.6047 12 43.4928 12H42.7092C42.5972 12 42.5056 11.9084 42.5056 11.7965V11.1757C42.1698 11.7761 41.4676 12.1526 40.6738 12.1526ZM40.9079 11.135C41.8747 11.135 42.5056 10.4328 42.5056 9.24215C42.5056 8.06166 41.8747 7.35948 40.9079 7.35948C39.9004 7.35948 39.2389 8.06166 39.2389 9.24215C39.2389 10.4328 39.9004 11.135 40.9079 11.135ZM50.4525 12.1526C49.6485 12.1526 48.9464 11.7761 48.6105 11.1757V11.7965C48.6105 11.9084 48.5189 12 48.407 12H47.6336C47.5216 12 47.4301 11.9084 47.4301 11.7965V4.06227C47.4301 3.95033 47.5216 3.85874 47.6336 3.85874H48.407C48.5189 3.85874 48.6105 3.95033 48.6105 4.06227V7.3086C48.9464 6.71836 49.6384 6.34182 50.4525 6.34182C52.0299 6.34182 53.0679 7.4816 53.0679 9.23197C53.0679 10.9925 52.0299 12.1526 50.4525 12.1526ZM50.2083 11.135C51.2157 11.135 51.8772 10.4328 51.8772 9.24215C51.8772 8.06166 51.2157 7.35948 50.2083 7.35948C49.2415 7.35948 48.6105 8.06166 48.6105 9.24215C48.6105 10.4328 49.2415 11.135 50.2083 11.135ZM56.3291 14.1778C55.5455 14.1778 54.9959 14.0455 54.5176 13.842C54.4464 13.8114 54.4057 13.7402 54.4057 13.669L54.4159 12.8955C54.4159 12.7734 54.538 12.7124 54.6499 12.7632C55.1689 12.9973 55.6676 13.1601 56.2578 13.1601C57.2653 13.1601 58.0286 12.7938 58.0286 11.4098V10.9925C57.5706 11.6031 57.0007 11.8881 56.2273 11.8881C54.6906 11.8881 54.019 10.9213 54.019 9.20144V6.70818C54.019 6.59624 54.1106 6.50465 54.2225 6.50465H54.9959C55.1079 6.50465 55.1995 6.59624 55.1995 6.70818V9.19126C55.1995 10.2802 55.576 10.8704 56.4919 10.8704C57.5401 10.8704 58.0286 10.1072 58.0286 8.98773V6.70818C58.0286 6.59624 58.1202 6.50465 58.2321 6.50465H59.0055C59.1175 6.50465 59.209 6.59624 59.209 6.70818V11.5522C59.209 13.3331 58.0082 14.1778 56.3291 14.1778Z" fill="#2C2C2C"/>
<path d="M74.1107 7.67476C74.6442 7.85943 75.1318 7.76765 75.1318 8.22084C75.1318 8.67402 74.4606 8.35168 73.6919 8.97122C72.9232 9.59077 72.6938 10.4168 72.189 11.4666C71.6841 12.5164 70.8638 14.5242 69.4584 14.2144C68.0529 13.9047 68.529 11.5871 68.5004 10.6406C68.4717 9.69402 68.3455 8.9827 67.594 8.89665C66.8425 8.8106 66.4065 9.38425 65.9705 10.0784C65.5346 10.7725 65.1674 12.2124 64.1291 11.9026C63.0908 11.5928 63.8021 9.68255 63.4522 9.11463C63.1023 8.54671 62.6376 8.53635 62.4713 8.53635C62.3049 8.53635 62.0353 8.4503 62.0353 8.22657C62.0353 8.00285 62.2762 7.93974 62.4713 7.93974C62.6663 7.93974 62.909 7.97109 63.4006 7.83539C64.6225 7.49809 64.4676 4.90401 65.8558 4.97285C67.1628 5.03765 66.4868 7.74934 67.7317 7.74934C68.9765 7.74934 69.3895 6.29799 69.9058 5.21379C70.4221 4.12958 71.4145 2.5004 72.6938 2.78722C73.973 3.07405 73.5313 5.46045 73.451 6.21194C73.3707 6.96343 73.5772 7.49009 74.1107 7.67476Z" fill="#2C2C2C"/>
<path d="M85.6914 12.1094L85.8447 12.25C85.9852 12.3777 86.0363 12.4544 86.0363 12.5821C86.0363 12.761 85.8958 12.876 85.6786 12.876H83.6983C83.4939 12.876 83.3406 12.761 83.3406 12.5821C83.3406 12.4544 83.4045 12.3777 83.5323 12.25L83.6856 12.1094C83.89 11.9434 84.0177 11.7134 84.0177 11.279V8.81326H79.5206V11.279C79.5206 11.6112 79.5717 11.8795 79.84 12.1094L79.9933 12.25C80.1339 12.3777 80.185 12.4544 80.185 12.5821C80.185 12.761 80.0444 12.876 79.8272 12.876H77.847C77.6426 12.876 77.4893 12.761 77.4893 12.5821C77.4893 12.4544 77.5404 12.3777 77.6809 12.25L77.8342 12.1094C78.0386 11.9434 78.1664 11.7134 78.1664 11.279V5.7215C78.1664 5.36377 78.0769 5.09548 77.8342 4.89107L77.6809 4.75053C77.5531 4.62277 77.4893 4.54612 77.4893 4.43113C77.4893 4.23949 77.6426 4.12451 77.847 4.12451H79.8272C80.0444 4.12451 80.185 4.23949 80.185 4.43113C80.185 4.54612 80.1339 4.62277 79.9933 4.75053L79.84 4.89107C79.6484 5.06993 79.5206 5.27434 79.5206 5.7215V8.04671H84.0177V5.7215C84.0177 5.37655 83.9283 5.09548 83.6856 4.89107L83.5323 4.75053C83.3917 4.62277 83.3406 4.54612 83.3406 4.43113C83.3406 4.23949 83.4939 4.12451 83.6983 4.12451H85.6786C85.8958 4.12451 86.0363 4.23949 86.0363 4.43113C86.0363 4.54612 85.9852 4.62277 85.8447 4.75053L85.6914 4.89107C85.4742 5.06993 85.372 5.31267 85.372 5.7215V11.279C85.372 11.5729 85.4231 11.8795 85.6914 12.1094Z" fill="#2C2C2C"/>
<path d="M92.6386 11.177C92.8047 11.177 92.8813 11.3176 92.8813 11.4453C92.8813 11.6114 92.7791 11.7519 92.6258 11.8925C91.9614 12.5568 91.0671 12.8762 90.1856 12.8762C88.3586 12.8762 87.0811 11.637 87.0811 9.68224C87.0811 7.71476 88.4353 6.33496 90.2878 6.33496C91.8209 6.33496 92.8813 7.25483 92.8813 8.59629C92.8813 9.15843 92.5619 9.49061 92.1275 9.49061H88.397C88.4481 11.0748 89.3168 11.9436 90.5816 11.9436C91.246 11.9436 91.8209 11.7008 92.2808 11.3303C92.4086 11.2409 92.5364 11.177 92.6386 11.177ZM90.1984 6.96098C89.2785 6.96098 88.5886 7.70198 88.4225 8.86459H91.0671C91.3993 8.86459 91.642 8.73683 91.642 8.3791C91.642 7.70198 91.2332 6.96098 90.1984 6.96098Z" fill="#2C2C2C"/>
<path d="M99.522 8.55797V11.1898C99.522 11.9691 100.289 11.6881 100.289 12.0841C100.289 12.2246 100.174 12.3396 99.9436 12.4674C99.6114 12.659 99.1259 12.8507 98.8065 12.8507C98.4999 12.8507 98.3594 12.6207 98.3594 12.1991V11.7519H98.3083C97.7972 12.3524 96.9668 12.8762 95.9958 12.8762C94.7438 12.8762 93.9261 12.2374 93.9261 11.1387C93.9261 9.68224 95.3187 8.96679 98.2316 8.86459V8.55797C98.2316 7.57422 97.6567 6.98653 96.8007 6.98653C95.3315 6.98653 95.7403 8.23857 94.8716 8.23857C94.5394 8.23857 94.2711 8.05971 94.2711 7.67643C94.2711 6.90988 95.5359 6.33496 96.8774 6.33496C98.6149 6.33496 99.522 7.11429 99.522 8.55797ZM96.443 12.0713C97.3884 12.0713 98.2316 11.3048 98.2316 10.5893V9.47783C96.3536 9.55448 95.2293 9.95054 95.2293 10.9854C95.2293 11.6753 95.7275 12.0713 96.443 12.0713Z" fill="#2C2C2C"/>
<path d="M105.064 6.44971C105.639 6.44971 105.958 6.85854 105.958 7.31847C105.958 7.71452 105.652 8.05947 105.332 8.05947C104.949 8.05947 104.885 7.58676 104.399 7.58676C103.812 7.58676 103.211 8.35331 103.211 9.14542V11.3045C103.211 11.7773 103.275 11.9561 103.454 12.135L103.595 12.2627C103.735 12.4033 103.786 12.4799 103.786 12.5949C103.786 12.7865 103.658 12.876 103.428 12.876H101.691C101.461 12.876 101.333 12.7865 101.333 12.5949C101.333 12.4927 101.384 12.4033 101.525 12.2627L101.665 12.135C101.857 11.9561 101.921 11.7773 101.921 11.3045V8.30221C101.921 7.91893 101.857 7.74007 101.678 7.57398L101.499 7.43345C101.397 7.34402 101.333 7.26736 101.333 7.1396C101.333 6.98629 101.435 6.87131 101.627 6.82021L102.56 6.51359C102.649 6.48803 102.751 6.47526 102.815 6.47526C103.02 6.47526 103.135 6.61579 103.135 6.79466V7.89338H103.16C103.543 7.11405 104.412 6.44971 105.064 6.44971Z" fill="#2C2C2C"/>
</svg>
