<svg width="1919" height="233" viewBox="0 0 1919 233" fill="none" xmlns="http://www.w3.org/2000/svg">
<g opacity="0.2" clip-path="url(#clip0_6015_2623)" filter="url(#filter0_i_6015_2623)">
<path d="M493.396 214.999C235.292 214.999 26.0577 -14.6973 26.0577 -298.041C26.0577 -580.279 233.661 -809.286 490.373 -811.071L493.396 -811.081C501.263 -811.081 509.085 -810.865 516.857 -810.444C522.987 -810.812 529.151 -811.023 535.347 -811.071L538.081 -811.081C546.682 -811.081 555.222 -810.766 563.695 -810.152C570.403 -810.701 577.159 -811.012 583.958 -811.071L586.379 -811.081C594.592 -811.081 602.743 -810.716 610.825 -810.002C617.218 -810.646 623.66 -811.006 630.147 -811.071L632.271 -811.081C640.688 -811.081 649.03 -810.585 657.288 -809.613C664.376 -810.585 671.537 -811.081 678.762 -811.081C687.67 -811.081 696.48 -810.327 705.177 -808.857C712.384 -810.327 719.685 -811.081 727.067 -811.081C735.537 -811.081 743.902 -810.09 752.139 -808.161C758.778 -810.09 765.521 -811.081 772.348 -811.081C781.214 -811.081 789.936 -809.412 798.476 -806.185C804.935 -809.412 811.531 -811.081 818.237 -811.081C827.742 -811.081 837.029 -807.729 846.014 -801.337C851.872 -807.522 857.92 -810.861 864.107 -811.071L864.728 -811.081C876.875 -811.081 888.495 -799.026 899.192 -777.033C904.152 -798.651 909.531 -810.667 915.154 -811.071L915.447 -811.081C937.944 -811.081 956.606 -625.232 960.13 -381.661C963.655 -625.232 982.317 -811.081 1004.81 -811.081L1005.11 -811.071C1010.73 -810.667 1016.11 -798.651 1021.07 -777.033C1031.77 -799.026 1043.39 -811.081 1055.53 -811.081L1056.15 -811.071C1062.34 -810.861 1068.39 -807.523 1074.25 -801.337C1083.23 -807.729 1092.52 -811.081 1102.02 -811.081C1108.73 -811.081 1115.33 -809.412 1121.79 -806.185C1130.33 -809.412 1139.05 -811.081 1147.91 -811.081C1154.74 -811.081 1161.48 -810.09 1168.12 -808.161C1176.36 -810.09 1184.72 -811.081 1193.19 -811.081C1200.58 -811.081 1207.88 -810.327 1215.08 -808.857C1223.78 -810.327 1232.59 -811.081 1241.5 -811.081C1248.72 -811.081 1255.89 -810.585 1262.97 -809.613C1271.23 -810.585 1279.57 -811.081 1287.99 -811.081L1290.11 -811.071C1296.6 -811.006 1303.04 -810.646 1309.44 -810.002C1317.52 -810.716 1325.67 -811.081 1333.88 -811.081L1336.3 -811.071C1343.1 -811.012 1349.86 -810.701 1356.57 -810.152C1365.04 -810.766 1373.58 -811.081 1382.18 -811.081L1384.91 -811.071C1391.11 -811.023 1397.27 -810.812 1403.41 -810.444C1411.18 -810.865 1419 -811.081 1426.86 -811.081L1429.89 -811.071C1686.6 -809.286 1894.2 -580.279 1894.2 -298.041C1894.2 -14.6973 1684.97 214.999 1426.86 214.999L1423.84 214.988C1416.99 214.94 1410.18 214.73 1403.4 214.362C1396.37 214.784 1389.3 214.999 1382.18 214.999L1379.45 214.988C1371.77 214.929 1364.15 214.619 1356.57 214.07C1349.07 214.685 1341.5 214.999 1333.88 214.999L1331.46 214.988C1324.07 214.924 1316.73 214.565 1309.44 213.921C1302.35 214.635 1295.2 214.999 1287.99 214.999L1285.87 214.988C1278.17 214.912 1270.54 214.422 1262.97 213.533C1255.89 214.504 1248.72 214.999 1241.5 214.999C1232.59 214.999 1223.78 214.245 1215.08 212.775C1207.88 214.245 1200.58 214.999 1193.19 214.999C1184.72 214.999 1176.36 214.008 1168.12 212.079C1161.48 214.008 1154.74 214.998 1147.91 214.999C1139.05 214.999 1130.32 213.33 1121.79 210.104C1115.33 213.33 1108.73 214.998 1102.02 214.999C1092.52 214.999 1083.23 211.647 1074.25 205.256C1068.19 211.648 1061.94 214.999 1055.53 214.999L1054.91 214.988C1042.99 214.584 1031.58 202.568 1021.07 180.949C1016.02 202.943 1010.54 214.999 1004.81 214.999L1004.52 214.988C982.154 213.382 963.638 28.0723 960.13 -214.458C956.623 28.0723 938.107 213.382 915.74 214.988L915.447 214.999C909.718 214.999 904.239 202.943 899.193 180.949C888.679 202.568 877.272 214.584 865.35 214.988L864.728 214.999C858.324 214.999 852.067 211.647 846.014 205.256C837.03 211.647 827.742 214.999 818.237 214.999C811.531 214.998 804.935 213.33 798.476 210.104C789.937 213.33 781.214 214.999 772.348 214.999C765.52 214.998 758.778 214.008 752.138 212.079C743.901 214.008 735.537 214.999 727.067 214.999C719.686 214.999 712.385 214.245 705.178 212.775C696.481 214.245 687.67 214.999 678.762 214.999C671.537 214.999 664.376 214.504 657.288 213.533C649.726 214.422 642.092 214.912 634.395 214.988L632.271 214.999C625.064 214.999 617.911 214.635 610.82 213.921C603.535 214.565 596.193 214.924 588.8 214.988L586.379 214.999C578.76 214.999 571.195 214.685 563.689 214.07C556.116 214.619 548.49 214.929 540.815 214.988L538.081 214.999C530.966 214.999 523.892 214.784 516.863 214.362C510.085 214.73 503.269 214.94 496.418 214.988L493.396 214.999ZM958.081 -418.264C956.102 -511.618 951.873 -595.027 946.077 -660.693C941.981 -707.095 937.107 -744.598 931.706 -770.479C929.003 -783.43 926.182 -793.401 923.291 -800.105C921.842 -803.462 920.41 -805.92 919.023 -807.516C917.627 -809.121 916.434 -809.684 915.447 -809.684C914.46 -809.684 913.267 -809.121 911.872 -807.516C910.485 -805.92 909.052 -803.462 907.604 -800.105C905.058 -794.203 902.568 -785.77 900.165 -775C928.86 -714.063 950.755 -581.312 958.081 -418.264ZM1426.86 213.601C1684.08 213.601 1892.81 -15.3434 1892.81 -298.041C1892.81 -580.739 1684.08 -809.684 1426.86 -809.684C1423 -809.684 1419.14 -809.63 1415.29 -809.528C1633.24 -789.024 1804.84 -567.858 1804.84 -298.041C1804.84 -28.2252 1633.24 192.942 1415.3 213.446C1419.14 213.549 1423 213.601 1426.86 213.601ZM1375.24 -807.983C1380.4 -808.607 1385.6 -809.139 1390.82 -809.576C1387.94 -809.647 1385.07 -809.684 1382.18 -809.684C1376.57 -809.684 1370.98 -809.549 1365.42 -809.284C1368.71 -808.909 1371.98 -808.474 1375.24 -807.983ZM1329.18 -807.084C1335.18 -807.995 1341.21 -808.754 1347.28 -809.357C1342.84 -809.572 1338.37 -809.684 1333.88 -809.684C1328.12 -809.684 1322.39 -809.503 1316.69 -809.148C1320.87 -808.582 1325.04 -807.893 1329.18 -807.084ZM1281.19 -806.037C1288.02 -807.356 1294.92 -808.421 1301.87 -809.228C1297.26 -809.528 1292.64 -809.684 1287.99 -809.684C1281.41 -809.684 1274.88 -809.377 1268.39 -808.776C1272.69 -808.037 1276.95 -807.123 1281.19 -806.037ZM1232.6 -803.814C1240.75 -805.977 1249.01 -807.671 1257.36 -808.877C1252.11 -809.412 1246.82 -809.684 1241.5 -809.684C1233.87 -809.684 1226.3 -809.124 1218.82 -808.029C1223.45 -806.919 1228.05 -805.511 1232.6 -803.814ZM1185.4 -800.922C1193.87 -804.036 1202.49 -806.46 1211.22 -808.156C1205.27 -809.167 1199.26 -809.684 1193.19 -809.684C1185.65 -809.684 1178.19 -808.885 1170.82 -807.326C1175.74 -805.702 1180.6 -803.56 1185.4 -800.922ZM1136.56 -795.908C1145.94 -801.036 1155.55 -804.918 1165.34 -807.472C1159.59 -808.936 1153.78 -809.684 1147.91 -809.684C1139.64 -809.684 1131.48 -808.199 1123.46 -805.312C1127.9 -802.902 1132.27 -799.756 1136.56 -795.908ZM1086.72 -783.405C1097.41 -793.404 1108.54 -800.853 1120.01 -805.49C1114.09 -808.265 1108.09 -809.684 1102.02 -809.684C1092.92 -809.684 1083.95 -806.487 1075.2 -800.301C1079.13 -795.926 1082.98 -790.265 1086.72 -783.405ZM1028.26 -737.068C1041.88 -766.804 1057 -788.55 1073.11 -800.507C1067.25 -806.654 1061.37 -809.684 1055.53 -809.684C1049.45 -809.684 1043.32 -806.395 1037.22 -799.715C1031.86 -793.861 1026.63 -785.508 1021.56 -774.834C1023.9 -764.308 1026.13 -751.648 1028.26 -737.068ZM962.18 -418.264C969.507 -581.312 991.401 -714.064 1020.1 -775C1017.69 -785.77 1015.2 -794.203 1012.66 -800.105C1011.21 -803.462 1009.78 -805.92 1008.39 -807.516C1006.99 -809.121 1005.8 -809.684 1004.81 -809.684C1003.83 -809.684 1002.63 -809.121 1001.24 -807.516C999.851 -805.92 998.418 -803.462 996.97 -800.105C994.078 -793.401 991.257 -783.43 988.555 -770.479C983.153 -744.598 978.28 -707.095 974.184 -660.693C968.388 -595.027 964.159 -511.618 962.18 -418.264ZM892.006 -737.068C894.129 -751.648 896.365 -764.308 898.697 -774.834C893.637 -785.508 888.399 -793.861 883.045 -799.715C876.937 -806.395 870.812 -809.684 864.728 -809.684C858.891 -809.684 853.016 -806.654 847.154 -800.507C863.265 -788.55 878.383 -766.804 892.006 -737.068ZM833.543 -783.405C837.283 -790.266 841.127 -795.926 845.059 -800.301C836.311 -806.488 827.34 -809.684 818.237 -809.684C812.174 -809.684 806.17 -808.264 800.251 -805.49C811.718 -800.853 822.848 -793.404 833.543 -783.405ZM783.702 -795.908C787.995 -799.756 792.364 -802.902 796.801 -805.312C788.782 -808.199 780.62 -809.684 772.348 -809.684C766.482 -809.684 760.67 -808.936 754.925 -807.472C764.716 -804.918 774.321 -801.036 783.702 -795.908ZM734.867 -800.922C739.663 -803.56 744.525 -805.702 749.446 -807.326C742.076 -808.885 734.611 -809.684 727.067 -809.684C721.005 -809.684 714.994 -809.167 709.042 -808.156C717.776 -806.46 726.39 -804.036 734.867 -800.922ZM687.663 -803.814C692.213 -805.511 696.808 -806.919 701.444 -808.029C693.96 -809.124 686.395 -809.684 678.762 -809.684C673.441 -809.684 668.153 -809.412 662.903 -808.877C671.251 -807.671 679.508 -805.977 687.663 -803.814ZM639.071 -806.037C643.307 -807.123 647.574 -808.037 651.868 -808.776C645.384 -809.377 638.85 -809.684 632.271 -809.684C627.623 -809.684 622.997 -809.528 618.396 -809.228C625.343 -808.421 632.237 -807.356 639.071 -806.037ZM591.083 -807.084C595.223 -807.893 599.387 -808.582 603.573 -809.148C597.874 -809.503 592.141 -809.684 586.379 -809.684C581.893 -809.684 577.425 -809.572 572.977 -809.357C579.05 -808.754 585.086 -807.995 591.083 -807.084ZM545.025 -807.983C548.284 -808.474 551.555 -808.909 554.838 -809.284C549.279 -809.549 543.693 -809.684 538.081 -809.684C535.196 -809.684 532.318 -809.647 529.447 -809.576C534.664 -809.139 539.857 -808.607 545.025 -807.983ZM493.396 213.601C497.264 213.601 501.121 213.549 504.966 213.446C287.017 192.942 115.424 -28.2248 115.424 -298.041C115.424 -567.858 287.017 -789.025 504.967 -809.528C501.121 -809.63 497.264 -809.684 493.396 -809.684C236.184 -809.684 27.4553 -580.739 27.4553 -298.041C27.4553 -15.3434 236.184 213.601 493.396 213.601ZM1403.39 212.962C1625.98 199.545 1803.44 -23.8594 1803.44 -298.041C1803.44 -572.223 1625.98 -795.627 1403.39 -809.044C1395.66 -808.623 1387.98 -807.993 1380.36 -807.163C1565.18 -775.799 1708.24 -559.818 1708.24 -298.041C1708.24 -36.2643 1565.17 179.718 1380.36 211.081C1387.98 211.911 1395.66 212.541 1403.39 212.962ZM516.87 212.962C524.6 212.541 532.28 211.911 539.906 211.081C355.086 179.719 212.025 -36.2638 212.025 -298.041C212.025 -559.819 355.086 -775.8 539.905 -807.163C532.279 -807.993 524.6 -808.623 516.87 -809.044C294.286 -795.627 116.822 -572.224 116.822 -298.041C116.822 -23.859 294.286 199.546 516.87 212.962ZM1345.31 -803.294C1353.46 -804.868 1361.68 -806.212 1369.97 -807.316C1365.52 -807.902 1361.06 -808.379 1356.57 -808.749C1348.72 -808.177 1340.93 -807.346 1333.2 -806.259C1337.26 -805.386 1341.3 -804.396 1345.31 -803.294ZM574.951 -803.294C578.962 -804.396 582.998 -805.386 587.058 -806.259C579.332 -807.346 571.543 -808.177 563.696 -808.749C559.206 -808.379 554.738 -807.902 550.292 -807.316C558.581 -806.212 566.802 -804.868 574.951 -803.294ZM1297.8 -800.852C1306.78 -803.061 1315.87 -804.925 1325.05 -806.431C1319.87 -807.344 1314.67 -808.068 1309.43 -808.599C1300.98 -807.848 1292.61 -806.712 1284.32 -805.202C1288.85 -803.947 1293.34 -802.494 1297.8 -800.852ZM622.466 -800.852C626.921 -802.494 631.414 -803.947 635.942 -805.202C627.655 -806.712 619.284 -807.848 610.836 -808.599C605.595 -808.068 600.388 -807.344 595.216 -806.431C604.397 -804.925 613.483 -803.061 622.466 -800.852ZM1247.26 -797.277C1257.34 -800.549 1267.58 -803.261 1277.96 -805.391C1273 -806.568 1268 -807.509 1262.96 -808.205C1253.47 -807.08 1244.09 -805.32 1234.84 -802.954C1239.02 -801.303 1243.16 -799.408 1247.26 -797.277ZM673.001 -797.277C677.099 -799.408 681.24 -801.303 685.419 -802.954C676.17 -805.32 666.792 -807.08 657.303 -808.205C652.267 -807.509 647.267 -806.568 642.306 -805.391C652.683 -803.261 662.921 -800.549 673.001 -797.277ZM1198.97 -792.012C1209.2 -796.503 1219.64 -800.238 1230.25 -803.177C1225.23 -804.955 1220.17 -806.378 1215.06 -807.434C1205.57 -805.812 1196.21 -803.328 1187.01 -800.02C1191.04 -797.699 1195.03 -795.025 1198.97 -792.012ZM721.293 -792.012C725.231 -795.025 729.219 -797.7 733.256 -800.02C724.055 -803.328 714.697 -805.812 705.204 -807.434C700.093 -806.378 695.028 -804.955 690.014 -803.177C700.625 -800.238 711.06 -796.503 721.293 -792.012ZM1148.85 -782.739C1160.14 -789.886 1171.76 -795.762 1183.66 -800.275C1178.53 -803.007 1173.34 -805.162 1168.09 -806.715C1157.74 -804.253 1147.58 -800.284 1137.66 -794.908C1141.45 -791.392 1145.18 -787.327 1148.85 -782.739ZM771.416 -782.739C775.079 -787.327 778.81 -791.392 782.603 -794.908C772.685 -800.285 762.526 -804.253 752.173 -806.715C746.922 -805.162 741.73 -803.007 736.604 -800.275C748.5 -795.762 760.121 -789.886 771.416 -782.739ZM1375.22 210.49C1461.56 197.425 1539.09 143.909 1597.46 63.9086C1665.01 -28.6697 1706.84 -156.634 1706.84 -298.041C1706.84 -439.449 1665.01 -567.413 1597.46 -659.991C1539.09 -739.992 1461.56 -793.506 1375.22 -806.572C1366.18 -805.477 1357.21 -804.098 1348.33 -802.442C1500.92 -758.191 1616.45 -549.192 1616.45 -298.041C1616.45 -46.892 1500.92 162.108 1348.33 206.36C1357.21 208.016 1366.18 209.395 1375.22 210.49ZM545.042 210.49C554.086 209.395 563.051 208.016 571.931 206.36C419.345 162.108 303.806 -46.8915 303.806 -298.041C303.806 -549.192 419.346 -758.191 571.933 -802.442C563.052 -804.098 554.086 -805.477 545.042 -806.572C458.706 -793.507 381.174 -739.992 322.8 -659.991C255.247 -567.413 213.423 -439.449 213.423 -298.041C213.423 -156.634 255.247 -28.6697 322.8 63.9086C381.174 143.91 458.706 197.425 545.042 210.49ZM1311.25 -795.259C1321.44 -798.104 1331.76 -800.583 1342.2 -802.68C1337.88 -803.809 1333.53 -804.804 1329.15 -805.664C1319.37 -804.171 1309.69 -802.271 1300.13 -799.977C1303.86 -798.539 1307.57 -796.964 1311.25 -795.259ZM609.007 -795.259C612.689 -796.963 616.398 -798.539 620.136 -799.977C610.573 -802.271 600.893 -804.171 591.11 -805.664C586.735 -804.804 582.386 -803.809 578.066 -802.68C588.505 -800.583 598.823 -798.104 609.007 -795.259ZM1095.62 -764.346C1108.27 -777.124 1121.52 -787.494 1135.27 -795.19C1130.81 -799.14 1126.28 -802.305 1121.71 -804.657C1109.92 -800.101 1098.45 -792.51 1087.4 -782.133C1090.2 -776.866 1092.95 -770.925 1095.62 -764.346ZM824.641 -764.346C827.317 -770.925 830.058 -776.866 832.859 -782.133C821.815 -792.51 810.343 -800.101 798.555 -804.657C793.978 -802.305 789.455 -799.14 784.997 -795.19C798.739 -787.494 811.995 -777.124 824.641 -764.346ZM1260.48 -789.49C1271.91 -793.655 1283.54 -797.25 1295.36 -800.245C1290.66 -801.914 1285.92 -803.368 1281.14 -804.602C1270.27 -802.49 1259.54 -799.734 1248.99 -796.362C1252.86 -794.281 1256.69 -791.988 1260.48 -789.49ZM659.784 -789.49C663.574 -791.988 667.404 -794.282 671.272 -796.362C660.719 -799.734 649.994 -802.49 639.12 -804.602C634.342 -803.368 629.602 -801.914 624.902 -800.245C636.718 -797.25 648.353 -793.655 659.784 -789.49ZM1210.17 -782.402C1221.66 -787.917 1233.41 -792.684 1245.39 -796.662C1241.14 -798.818 1236.85 -800.715 1232.52 -802.347C1221.56 -799.416 1210.79 -795.631 1200.23 -791.037C1203.58 -788.403 1206.89 -785.522 1210.17 -782.402ZM710.094 -782.402C713.367 -785.522 716.681 -788.403 720.034 -791.037C709.472 -795.631 698.697 -799.416 687.739 -802.347C683.409 -800.715 679.119 -798.818 674.871 -796.662C686.847 -792.684 698.599 -787.917 710.094 -782.402ZM1345.26 205.776C1412.44 187.2 1472.64 136.501 1519.07 63.979C1578.35 -28.6061 1615.06 -156.596 1615.06 -298.041C1615.06 -439.487 1578.35 -567.477 1519.07 -660.062C1472.64 -732.584 1412.44 -783.282 1345.26 -801.858C1334.44 -799.759 1323.75 -797.25 1313.2 -794.346C1434.2 -736.633 1523.47 -536.306 1523.47 -298.041C1523.47 -59.7763 1434.2 140.551 1313.2 198.264C1323.75 201.168 1334.44 203.677 1345.26 205.776ZM575.007 205.776C585.826 203.677 596.517 201.168 607.065 198.264C486.06 140.552 396.79 -59.7757 396.79 -298.041C396.79 -536.307 486.06 -736.633 607.065 -794.346C596.517 -797.25 585.826 -799.759 575.007 -801.858C507.82 -783.282 447.619 -732.584 401.187 -660.062C341.912 -567.477 305.203 -439.487 305.203 -298.041C305.203 -156.596 341.912 -28.6061 401.187 63.979C447.619 136.502 507.82 187.2 575.007 205.776ZM1032.55 -703.65C1048.43 -737.196 1066.33 -763.979 1085.67 -782.413C1081.88 -789.407 1078 -795.119 1074.06 -799.478C1065 -792.788 1056.19 -782.886 1047.73 -769.997C1041.09 -759.896 1034.71 -748.011 1028.63 -734.505C1029.98 -724.99 1031.29 -714.686 1032.55 -703.65ZM887.716 -703.65C888.971 -714.686 890.281 -724.99 891.637 -734.505C885.552 -748.011 879.168 -759.896 872.535 -769.997C864.071 -782.886 855.257 -792.788 846.199 -799.478C842.26 -795.119 838.383 -789.408 834.594 -782.413C853.936 -763.979 871.837 -737.196 887.716 -703.65ZM1158.29 -769.533C1170.97 -778.055 1184.07 -785.363 1197.51 -791.368C1193.48 -794.41 1189.4 -797.087 1185.28 -799.39C1173.13 -794.875 1161.26 -788.924 1149.72 -781.636C1152.62 -777.926 1155.48 -773.888 1158.29 -769.533ZM761.971 -769.533C764.783 -773.888 767.642 -777.926 770.543 -781.636C759.006 -788.924 747.133 -794.875 734.98 -799.39C730.857 -797.087 726.778 -794.41 722.75 -791.368C736.196 -785.363 749.29 -778.055 761.971 -769.533ZM1271.08 -781.886C1283.55 -786.721 1296.25 -790.992 1309.17 -794.672C1305.38 -796.386 1301.57 -797.96 1297.72 -799.389C1285.59 -796.39 1273.65 -792.758 1261.93 -788.523C1265.01 -786.445 1268.06 -784.232 1271.08 -781.886ZM649.178 -781.886C652.201 -784.232 655.254 -786.445 658.333 -788.523C646.608 -792.758 634.67 -796.39 622.544 -799.389C618.697 -797.96 614.879 -796.386 611.09 -794.672C624.011 -790.992 636.716 -786.721 649.178 -781.886ZM1220.14 -772.021C1232.74 -778.377 1245.65 -784.014 1258.84 -788.889C1254.98 -791.398 1251.07 -793.692 1247.13 -795.763C1234.93 -791.773 1222.95 -786.958 1211.24 -781.366C1214.24 -778.45 1217.21 -775.333 1220.14 -772.021ZM700.124 -772.021C703.052 -775.333 706.017 -778.45 709.017 -781.366C697.308 -786.958 685.335 -791.773 673.131 -795.763C669.189 -793.692 665.287 -791.398 661.424 -788.889C674.609 -784.014 687.52 -778.377 700.124 -772.021ZM1102.77 -744.79C1117.01 -759.461 1132.02 -771.942 1147.66 -781.984C1143.95 -786.621 1140.18 -790.698 1136.37 -794.199C1122.45 -786.467 1109.01 -775.957 1096.19 -762.935C1098.43 -757.329 1100.62 -751.273 1102.77 -744.79ZM817.495 -744.79C819.638 -751.273 821.831 -757.329 824.072 -762.935C811.25 -775.957 797.814 -786.467 783.896 -794.199C780.079 -790.698 776.311 -786.621 772.6 -781.984C788.244 -771.942 803.255 -759.461 817.495 -744.79ZM1311.14 197.69C1360.42 174.703 1404.59 127.86 1439.66 64.06C1490.55 -28.5389 1522.07 -156.559 1522.07 -298.041C1522.07 -439.524 1490.55 -567.544 1439.66 -660.143C1404.59 -723.942 1360.42 -770.784 1311.14 -793.771C1297.98 -790.079 1285.05 -785.772 1272.37 -780.88C1362.45 -709.659 1426.86 -520.365 1426.86 -298.041C1426.86 -75.7176 1362.45 113.577 1272.37 184.798C1285.05 189.69 1297.98 193.997 1311.14 197.69ZM609.127 197.69C622.281 193.997 635.212 189.691 647.892 184.798C557.808 113.577 493.399 -75.7171 493.399 -298.041C493.399 -520.365 557.808 -709.659 647.892 -780.88C635.212 -785.772 622.281 -790.079 609.127 -793.771C559.837 -770.785 515.667 -723.943 480.602 -660.143C429.708 -567.544 398.187 -439.524 398.187 -298.041C398.187 -156.559 429.708 -28.5389 480.602 64.06C515.667 127.86 559.837 174.703 609.127 197.69ZM1165.95 -756.685C1179.77 -766.211 1194.09 -774.595 1208.82 -781.752C1205.51 -784.887 1202.16 -787.774 1198.77 -790.401C1185.15 -784.369 1171.89 -776.989 1159.04 -768.356C1161.38 -764.682 1163.68 -760.79 1165.95 -756.685ZM754.315 -756.685C756.582 -760.79 758.883 -764.682 761.217 -768.356C748.374 -776.989 735.109 -784.369 721.487 -790.401C718.1 -787.774 714.751 -784.887 711.438 -781.752C726.176 -774.595 740.491 -766.211 754.315 -756.685ZM1228.05 -762.473C1241.55 -769.447 1255.4 -775.735 1269.56 -781.292C1266.5 -783.643 1263.42 -785.857 1260.3 -787.929C1246.94 -783.032 1233.86 -777.351 1221.1 -770.929C1223.44 -768.235 1225.76 -765.415 1228.05 -762.473ZM692.207 -762.473C694.502 -765.415 696.822 -768.235 699.166 -770.929C686.401 -777.351 673.321 -783.032 659.962 -787.929C656.847 -785.857 653.759 -783.643 650.699 -781.292C664.864 -775.735 678.712 -769.447 692.207 -762.473ZM1035.4 -676.429C1052.88 -711.594 1072.81 -740.995 1094.55 -763.261C1093.58 -765.659 1092.61 -767.973 1091.62 -770.199C1089.89 -774.123 1088.13 -777.77 1086.35 -781.135C1082.73 -777.669 1079.16 -773.904 1075.64 -769.848C1060.24 -752.105 1045.86 -728.867 1032.84 -701.004C1033.72 -693.166 1034.57 -684.967 1035.4 -676.429ZM884.867 -676.429C885.689 -684.967 886.541 -693.166 887.418 -701.004C874.404 -728.867 860.024 -752.105 844.621 -769.848C841.101 -773.903 837.529 -777.669 833.912 -781.135C832.134 -777.77 830.374 -774.123 828.638 -770.199C827.653 -767.973 826.677 -765.659 825.709 -763.261C847.456 -740.995 867.384 -711.594 884.867 -676.429ZM1108.11 -727.373C1123.59 -743.231 1139.98 -757.099 1157.13 -768.749C1156.86 -769.168 1156.59 -769.584 1156.32 -769.997C1153.76 -773.902 1151.16 -777.533 1148.53 -780.884C1132.76 -770.773 1117.62 -758.158 1103.26 -743.291C1104.9 -738.235 1106.52 -732.926 1108.11 -727.373ZM812.155 -727.373C813.74 -732.926 815.357 -738.235 817.005 -743.291C802.644 -758.158 787.503 -770.773 771.728 -780.884C769.102 -777.533 766.504 -773.903 763.939 -769.997C763.668 -769.584 763.398 -769.168 763.128 -768.749C780.281 -757.099 796.673 -743.231 812.155 -727.373ZM1172.66 -743.708C1187.52 -754.019 1202.94 -763.266 1218.85 -771.367C1215.9 -774.691 1212.92 -777.81 1209.9 -780.723C1195.02 -773.528 1180.57 -765.075 1166.62 -755.454C1168.66 -751.709 1170.68 -747.792 1172.66 -743.708ZM747.6 -743.708C749.584 -747.792 751.597 -751.709 753.639 -755.454C739.689 -765.075 725.24 -773.528 710.361 -780.723C707.345 -777.81 704.361 -774.691 701.412 -771.367C717.326 -763.266 732.746 -754.019 747.6 -743.708ZM1270.85 184.209C1303.53 158.622 1332.94 117.308 1357.15 64.1538C1399.34 -28.468 1425.46 -156.522 1425.46 -298.041C1425.46 -439.561 1399.34 -567.615 1357.15 -660.237C1332.94 -713.391 1303.53 -754.704 1270.85 -780.291C1256.54 -774.708 1242.56 -768.379 1228.93 -761.346C1292.42 -678.85 1336.3 -502.4 1336.3 -298.041C1336.3 -93.6827 1292.42 82.7686 1228.93 165.264C1242.56 172.297 1256.54 178.626 1270.85 184.209ZM649.408 184.209C663.718 178.626 677.706 172.297 691.334 165.264C627.839 82.7688 583.964 -93.6823 583.964 -298.041C583.964 -502.4 627.839 -678.85 691.334 -761.346C677.706 -768.379 663.718 -774.708 649.408 -780.291C616.731 -754.704 587.32 -713.391 563.11 -660.237C520.925 -567.615 494.796 -439.561 494.796 -298.041C494.796 -156.522 520.925 -28.468 563.11 64.1538C587.32 117.308 616.73 158.622 649.408 184.209ZM963.819 -423.461C972.963 -554.49 996.102 -665.508 1027.18 -734.709C1025.24 -748.32 1023.2 -760.298 1021.07 -770.479C1020.91 -771.245 1020.75 -772.002 1020.59 -772.747C1020.21 -771.911 1019.82 -771.062 1019.44 -770.199C1008.02 -744.382 997.7 -706.937 989.021 -660.559C976.971 -596.16 968.11 -514.673 963.819 -423.461ZM956.443 -423.461C952.152 -514.673 943.29 -596.16 931.239 -660.559C922.561 -706.937 912.241 -744.382 900.819 -770.199C900.437 -771.062 900.054 -771.911 899.67 -772.747C899.509 -772.002 899.348 -771.245 899.188 -770.479C897.064 -760.298 895.023 -748.32 893.077 -734.709C924.16 -665.508 947.299 -554.49 956.443 -423.461ZM1177.93 -732.314C1193.61 -743.172 1209.92 -753.034 1226.79 -761.82C1224.61 -764.608 1222.41 -767.286 1220.18 -769.848C1220.06 -769.991 1219.93 -770.133 1219.81 -770.276C1203.77 -762.133 1188.24 -752.82 1173.28 -742.425C1174.85 -739.158 1176.4 -735.787 1177.93 -732.314ZM742.334 -732.314C743.864 -735.787 745.413 -739.158 746.981 -742.425C732.022 -752.82 716.488 -762.133 700.453 -770.276C700.328 -770.133 700.201 -769.992 700.076 -769.848C697.852 -767.286 695.65 -764.608 693.47 -761.82C710.338 -753.034 726.651 -743.172 742.334 -732.314ZM1112.35 -711.643C1128.85 -728.272 1146.38 -743.09 1164.79 -755.885C1162.52 -759.997 1160.22 -763.896 1157.89 -767.572C1140.62 -755.844 1124.13 -741.851 1108.55 -725.826C1109.84 -721.258 1111.1 -716.529 1112.35 -711.643ZM807.915 -711.643C809.159 -716.529 810.426 -721.258 811.714 -725.826C796.137 -741.851 779.638 -755.844 762.374 -767.572C760.039 -763.896 757.738 -759.997 755.469 -755.885C773.878 -743.09 791.413 -728.272 807.915 -711.643ZM1037.57 -652.342C1056.34 -688.1 1077.92 -718.93 1101.67 -743.654C1099.53 -750.153 1097.35 -756.224 1095.12 -761.842C1073.27 -739.353 1053.22 -709.556 1035.65 -673.785C1036.3 -666.853 1036.94 -659.702 1037.57 -652.342ZM882.697 -652.342C883.317 -659.702 883.957 -666.853 884.615 -673.785C867.038 -709.556 846.991 -739.353 825.14 -761.842C822.91 -756.224 820.728 -750.153 818.594 -743.654C842.344 -718.93 863.926 -688.1 882.697 -652.342ZM1227.67 164.612C1247.09 139.439 1264.71 105.363 1279.81 64.2514C1313.83 -28.3998 1334.9 -156.49 1334.9 -298.041C1334.9 -439.593 1313.83 -567.683 1279.81 -660.334C1264.71 -701.446 1247.09 -735.521 1227.67 -760.694C1210.69 -751.864 1194.28 -741.941 1178.5 -731.007C1218.19 -639.935 1244.52 -480.058 1244.52 -298.041C1244.52 -116.024 1218.19 43.8537 1178.5 134.925C1194.28 145.859 1210.69 155.782 1227.67 164.612ZM692.596 164.612C709.573 155.782 725.986 145.859 741.761 134.925C702.069 43.8537 675.741 -116.024 675.741 -298.041C675.741 -480.058 702.069 -639.935 741.761 -731.007C725.986 -741.941 709.573 -751.864 692.596 -760.694C673.175 -735.521 655.548 -701.446 640.452 -660.334C606.431 -567.683 585.362 -439.593 585.362 -298.041C585.362 -156.49 606.431 -28.3998 640.452 64.2514C655.548 105.364 673.175 139.439 692.596 164.612ZM1116 -696.572C1133.4 -713.727 1151.96 -729.233 1171.5 -742.897C1169.52 -746.986 1167.51 -750.907 1165.47 -754.653C1146.96 -741.775 1129.33 -726.84 1112.74 -710.06C1113.85 -705.686 1114.93 -701.189 1116 -696.572ZM804.267 -696.572C805.331 -701.189 806.417 -705.686 807.518 -710.06C790.935 -726.84 773.306 -741.775 754.793 -754.653C752.754 -750.907 750.743 -746.986 748.76 -742.897C768.301 -729.233 786.857 -713.727 804.267 -696.572ZM1039.12 -632.882C1058.86 -668.632 1081.7 -700.084 1106.98 -726.217C1105.41 -731.776 1103.8 -737.09 1102.16 -742.15C1080.61 -719.611 1060.84 -691.99 1043.34 -660.143C1041.46 -656.724 1039.61 -653.257 1037.78 -649.743C1038.24 -644.236 1038.69 -638.614 1039.12 -632.882ZM881.137 -632.882C881.573 -638.614 882.021 -644.236 882.479 -649.743C880.653 -653.257 878.802 -656.724 876.923 -660.143C859.419 -691.99 839.647 -719.611 818.102 -742.15C816.463 -737.09 814.854 -731.776 813.277 -726.217C838.565 -700.084 861.403 -668.632 881.137 -632.882ZM1118.81 -683.855C1136.94 -701.313 1156.31 -717.255 1176.76 -731.503C1175.23 -734.977 1173.68 -738.349 1172.12 -741.615C1152.48 -727.867 1133.84 -712.252 1116.36 -694.966C1117.19 -691.334 1118.01 -687.63 1118.81 -683.855ZM801.448 -683.855C802.253 -687.63 803.072 -691.334 803.9 -694.966C786.422 -712.252 767.78 -727.867 748.142 -741.615C746.577 -738.349 745.03 -734.977 743.503 -731.503C763.95 -717.255 783.32 -701.313 801.448 -683.855ZM954.983 -424.311C948.592 -515.141 935.471 -596.282 917.651 -660.442C910.116 -687.57 901.748 -711.635 892.708 -732.101C891.374 -722.567 890.085 -712.262 888.849 -701.239C920.964 -632.32 944.645 -535.554 954.983 -424.311ZM965.279 -424.311C975.617 -535.554 999.298 -632.32 1031.41 -701.239C1030.18 -712.262 1028.89 -722.567 1027.55 -732.101C1018.51 -711.635 1010.15 -687.57 1002.61 -660.442C984.79 -596.282 971.669 -515.141 965.279 -424.311ZM1177.33 134.111C1186.05 114.063 1194.14 90.6492 1201.44 64.3589C1227.18 -28.33 1243.12 -156.459 1243.12 -298.041C1243.12 -439.624 1227.18 -567.753 1201.44 -660.442C1194.14 -686.732 1186.05 -710.145 1177.33 -730.193C1156.79 -715.864 1137.35 -699.818 1119.16 -682.239C1139.02 -588.247 1151.54 -450.957 1151.54 -298.041C1151.54 -145.125 1139.02 -7.83427 1119.16 86.1584C1137.35 103.737 1156.79 119.783 1177.33 134.111ZM742.93 134.111C763.467 119.783 782.915 103.737 801.104 86.1584C781.245 -7.83427 768.725 -145.125 768.725 -298.041C768.725 -450.957 781.246 -588.247 801.105 -682.239C782.915 -699.818 763.468 -715.864 742.93 -730.193C734.21 -710.145 726.126 -686.732 718.824 -660.442C693.079 -567.753 677.139 -439.624 677.139 -298.041C677.139 -156.459 693.079 -28.33 718.824 64.3589C726.126 90.6494 734.21 114.063 742.93 134.111ZM1040.32 -616.435C1060.82 -651.881 1084.66 -683.526 1111.2 -710.478C1109.96 -715.363 1108.7 -720.092 1107.42 -724.66C1089.23 -705.779 1072.31 -684.122 1056.91 -660.062C1050.8 -650.52 1044.93 -640.601 1039.32 -630.331C1039.66 -625.767 1040 -621.135 1040.32 -616.435ZM879.938 -616.435C880.266 -621.135 880.602 -625.767 880.945 -630.331C875.33 -640.601 869.462 -650.52 863.353 -660.062C847.949 -684.122 831.028 -705.779 812.841 -724.66C811.56 -720.092 810.301 -715.363 809.065 -710.478C835.598 -683.526 859.441 -651.881 879.938 -616.435ZM1041.33 -601.466C1062.49 -636.418 1087.2 -667.996 1114.83 -695.414C1113.77 -700.027 1112.69 -704.522 1111.6 -708.893C1096.98 -693.979 1083.17 -677.63 1070.3 -659.991C1059.72 -645.481 1049.76 -630.101 1040.5 -613.937C1040.78 -609.83 1041.06 -605.673 1041.33 -601.466ZM878.929 -601.466C879.202 -605.673 879.479 -609.83 879.763 -613.937C870.501 -630.101 860.546 -645.481 849.958 -659.991C837.088 -677.63 823.285 -693.979 808.664 -708.893C807.569 -704.522 806.495 -700.027 805.437 -695.414C833.062 -667.996 857.776 -636.418 878.929 -601.466ZM953.47 -425.486C944.983 -515.804 927.689 -596.484 904.244 -660.334C899.278 -673.858 894.039 -686.62 888.552 -698.555C887.689 -690.731 886.852 -682.556 886.043 -674.047C918.379 -608.11 942.197 -522.309 953.47 -425.486ZM966.792 -425.486C978.065 -522.31 1001.88 -608.11 1034.22 -674.047C1033.41 -682.556 1032.57 -690.731 1031.71 -698.555C1026.22 -686.62 1020.98 -673.858 1016.02 -660.334C992.571 -596.484 975.279 -515.804 966.792 -425.486ZM1042.1 -589.311C1063.76 -623.726 1089.15 -655.092 1117.63 -682.707C1116.83 -686.478 1116.02 -690.178 1115.19 -693.806C1087.45 -666.166 1062.66 -634.308 1041.49 -599.031C1041.7 -595.819 1041.9 -592.579 1042.1 -589.311ZM878.164 -589.311C878.363 -592.579 878.566 -595.819 878.772 -599.031C857.604 -634.308 832.813 -666.166 805.068 -693.806C804.244 -690.178 803.433 -686.478 802.633 -682.707C831.114 -655.092 856.506 -623.726 878.164 -589.311ZM1117.97 85.0109C1119.37 78.379 1120.72 71.5309 1122.04 64.4761C1139.4 -28.2581 1150.14 -156.428 1150.14 -298.041C1150.14 -439.654 1139.4 -567.825 1122.04 -660.559C1120.72 -667.613 1119.36 -674.461 1117.97 -681.093C1089.37 -653.265 1063.91 -621.633 1042.24 -586.917C1047.2 -504.639 1050.1 -405.175 1050.1 -298.041C1050.1 -190.908 1047.2 -91.4435 1042.24 -9.1654C1063.91 25.5502 1089.37 57.1827 1117.97 85.0109ZM802.291 85.0109C830.891 57.1827 856.353 25.5502 878.02 -9.1654C873.062 -91.4435 870.162 -190.908 870.162 -298.041C870.162 -405.175 873.062 -504.639 878.02 -586.917C856.353 -621.633 830.891 -653.265 802.291 -681.093C800.897 -674.461 799.538 -667.613 798.217 -660.559C780.864 -567.825 770.122 -439.654 770.122 -298.041C770.122 -156.428 780.864 -28.2581 798.217 64.4761C799.538 71.531 800.897 78.3789 802.291 85.0109ZM967.725 -421.348C979.538 -508.466 1003.58 -586.818 1036.36 -650.027C1036.06 -653.632 1035.75 -657.188 1035.44 -660.693C1035.12 -664.308 1034.8 -667.869 1034.47 -671.375C1032.7 -667.723 1030.95 -664.01 1029.24 -660.237C999.725 -595.441 978.072 -513.304 967.725 -421.348ZM952.537 -421.348C942.19 -513.304 920.536 -595.441 891.024 -660.237C889.306 -664.01 887.561 -667.723 885.791 -671.375C885.462 -667.869 885.137 -664.308 884.818 -660.693C884.509 -657.188 884.205 -653.632 883.905 -650.027C916.678 -586.818 940.724 -508.466 952.537 -421.348ZM969.496 -423.974C981.999 -501.356 1005.76 -571.742 1037.89 -630.638C1037.46 -636.335 1037.02 -641.925 1036.57 -647.404C1004.76 -585.384 981.297 -508.918 969.496 -423.974ZM950.765 -423.974C938.964 -508.918 915.505 -585.384 883.687 -647.404C883.237 -641.925 882.798 -636.335 882.369 -630.638C914.505 -571.742 938.263 -501.356 950.765 -423.974ZM949.211 -424.833C936.821 -500.814 913.557 -569.985 882.177 -628.065C881.84 -623.53 881.51 -618.928 881.187 -614.261C912.741 -559.087 936.226 -494.832 949.211 -424.833ZM971.051 -424.833C984.036 -494.833 1007.52 -559.087 1039.08 -614.261C1038.75 -618.928 1038.42 -623.53 1038.08 -628.065C1006.7 -569.985 983.441 -500.814 971.051 -424.833ZM972.007 -422.305C985.279 -487.064 1008.69 -546.959 1040.07 -599.366C1039.8 -603.54 1039.53 -607.666 1039.25 -611.744C1007.96 -556.524 984.735 -492.27 972.007 -422.305ZM948.254 -422.305C935.527 -492.27 912.302 -556.524 881.014 -611.744C880.735 -607.666 880.461 -603.54 880.194 -599.366C911.575 -546.959 934.983 -487.064 948.254 -422.305ZM974.377 -426.829C988.062 -484.944 1010.79 -539.065 1040.82 -587.274C1040.63 -590.513 1040.43 -593.725 1040.22 -596.91C1010.22 -546.366 987.624 -488.893 974.377 -426.829ZM945.885 -426.829C932.638 -488.893 910.042 -546.366 880.037 -596.91C879.835 -593.725 879.636 -590.513 879.441 -587.274C909.469 -539.065 932.199 -484.944 945.885 -426.829ZM1040.97 -11.2212C1045.85 -93.0793 1048.7 -191.782 1048.7 -298.041C1048.7 -404.3 1045.85 -503.003 1040.97 -584.861C990.71 -503.493 961.235 -405.38 960.93 -299.695C960.929 -299.144 960.926 -298.593 960.926 -298.041C960.926 -297.49 960.929 -296.938 960.93 -296.387C961.235 -190.702 990.71 -92.5892 1040.97 -11.2212ZM879.295 -11.2212C929.551 -92.5891 959.027 -190.702 959.332 -296.387C959.333 -296.938 959.334 -297.49 959.334 -298.041C959.334 -298.593 959.333 -299.144 959.332 -299.695C959.027 -405.38 929.551 -503.493 879.295 -584.861C874.412 -503.003 871.56 -404.3 871.56 -298.041C871.56 -191.782 874.412 -93.0793 879.295 -11.2212ZM1004.81 213.601C1005.8 213.601 1006.99 213.038 1008.39 211.433C1009.78 209.837 1011.21 207.38 1012.66 204.022C1015.2 198.12 1017.69 189.687 1020.1 178.917C991.402 117.978 969.506 -14.7771 962.18 -177.831C964.159 -84.4719 968.388 -1.05882 974.184 64.6099C978.28 111.012 983.153 148.515 988.555 174.396C991.257 187.347 994.078 197.318 996.97 204.022C998.418 207.38 999.851 209.837 1001.24 211.433C1002.63 213.038 1003.83 213.601 1004.81 213.601ZM915.447 213.601C916.434 213.601 917.627 213.038 919.023 211.433C920.41 209.837 921.842 207.38 923.291 204.022C926.182 197.318 929.003 187.347 931.706 174.396C937.107 148.515 941.981 111.012 946.077 64.6099C951.873 -1.05882 956.103 -84.4719 958.081 -177.831C950.756 -14.7774 928.86 117.978 900.164 178.917C902.568 189.687 905.058 198.12 907.604 204.022C909.052 207.38 910.485 209.837 911.872 211.433C913.267 213.038 914.46 213.601 915.447 213.601ZM1034.47 75.2933C1034.8 71.7871 1035.12 68.2255 1035.44 64.6099C1035.75 61.1057 1036.06 57.551 1036.36 53.9469C1003.58 -9.26358 979.537 -87.6183 967.724 -174.739C978.071 -82.781 999.724 -0.642899 1029.24 64.1538C1030.96 67.9272 1032.7 71.6406 1034.47 75.2933ZM885.791 75.2933C887.561 71.6407 889.306 67.9271 891.024 64.1538C920.537 -0.642929 942.191 -82.7809 952.538 -174.739C940.725 -87.6184 916.679 -9.26355 883.905 53.9469C884.205 57.5509 884.509 61.1057 884.818 64.6099C885.137 68.2255 885.462 71.787 885.791 75.2933ZM1039.25 15.6617C1039.53 11.5842 1039.8 7.45783 1040.07 3.28381C1008.69 -49.1175 985.283 -109.006 972.01 -173.758C984.739 -103.801 1007.96 -39.5527 1039.25 15.6617ZM881.014 15.6617C912.299 -39.5526 935.523 -103.801 948.252 -173.758C934.979 -109.006 911.572 -49.1174 880.194 3.28381C880.461 7.45783 880.735 11.5842 881.014 15.6617ZM1021.07 174.396C1023.2 164.215 1025.24 152.236 1027.19 138.624C996.101 69.4186 972.961 -41.6086 963.818 -172.648C968.109 -81.426 976.969 0.0713138 989.021 64.4761C997.7 110.854 1008.02 148.3 1019.44 174.116C1019.82 174.98 1020.21 175.829 1020.59 176.665C1020.75 175.919 1020.91 175.163 1021.07 174.396ZM899.67 176.665C900.054 175.829 900.437 174.98 900.819 174.116C912.241 148.3 922.561 110.854 931.239 64.4761C943.291 0.0713062 952.153 -81.4259 956.444 -172.648C947.301 -41.6088 924.16 69.4185 893.076 138.624C895.022 152.236 897.064 164.215 899.188 174.396C899.348 175.163 899.509 175.919 899.67 176.665ZM1036.57 51.3217C1037.02 45.8442 1037.46 40.2548 1037.89 34.5577C1005.76 -24.3406 981.997 -94.7319 969.494 -172.119C981.295 -87.17 1004.76 -10.7006 1036.57 51.3217ZM883.687 51.3217C915.506 -10.7005 938.967 -87.1701 950.767 -172.119C938.265 -94.732 914.507 -24.3405 882.369 34.5577C882.798 40.2548 883.237 45.8442 883.687 51.3217ZM1027.55 136.019C1028.89 126.485 1030.18 116.18 1031.41 105.156C999.296 36.2336 975.615 -60.5393 965.278 -171.79C971.668 -80.9531 984.789 0.194607 1002.61 64.3589C1010.15 91.4878 1018.51 115.553 1027.55 136.019ZM892.708 136.019C901.748 115.553 910.116 91.4876 917.651 64.3589C935.472 0.194592 948.594 -80.953 954.984 -171.79C944.646 -60.5395 920.966 36.2336 888.849 105.156C890.085 116.18 891.374 126.485 892.708 136.019ZM1038.08 31.9833C1038.42 27.4485 1038.75 22.8466 1039.08 18.1795C1007.52 -36.9892 984.039 -101.237 971.054 -171.229C983.445 -95.2557 1006.71 -26.0918 1038.08 31.9833ZM882.177 31.9833C913.555 -26.0917 936.817 -95.2558 949.208 -171.229C936.222 -101.237 912.738 -36.9892 881.187 18.1795C881.51 22.8466 881.84 27.4485 882.177 31.9833ZM1031.71 102.473C1032.57 94.6498 1033.41 86.4747 1034.22 77.9664C1001.88 12.0272 978.064 -73.777 966.791 -170.605C975.278 -80.2836 992.571 0.399743 1016.02 64.2514C1020.98 77.7757 1026.22 90.5382 1031.71 102.473ZM888.552 102.473C894.039 90.5383 899.278 77.7755 904.244 64.2514C927.69 0.399724 944.984 -80.2835 953.471 -170.605C942.198 -73.7771 918.381 12.0273 886.043 77.9664C886.852 86.4747 887.689 94.6498 888.552 102.473ZM1040.22 0.828544C1040.43 -2.35746 1040.63 -5.57079 1040.82 -8.81088C1010.79 -57.0308 988.053 -111.165 974.368 -169.295C987.614 -107.214 1010.21 -49.7271 1040.22 0.828544ZM880.037 0.828544C910.049 -49.7271 932.648 -107.215 945.894 -169.295C932.209 -111.165 909.476 -57.0308 879.441 -8.81088C879.636 -5.57078 879.835 -2.35746 880.037 0.828544ZM805.068 97.7238C832.813 70.0842 857.605 38.2244 878.773 2.94687C878.567 -0.264152 878.363 -3.50316 878.164 -6.7697C856.506 27.6452 831.115 59.0128 802.634 86.6272C803.434 90.3974 804.244 94.0971 805.068 97.7238ZM1115.19 97.7238C1116.02 94.0971 1116.83 90.3974 1117.63 86.6272C1089.15 59.0128 1063.76 27.6453 1042.1 -6.7697C1041.9 -3.50316 1041.69 -0.264152 1041.49 2.94687C1062.66 38.2245 1087.45 70.0842 1115.19 97.7238ZM1111.6 112.811C1112.69 108.44 1113.77 103.946 1114.83 99.3323C1087.2 71.9139 1062.48 40.3362 1041.33 5.38456C1041.06 9.59042 1040.78 13.7475 1040.5 17.8543C1049.76 34.0186 1059.72 49.3984 1070.3 63.9086C1083.17 81.5471 1096.98 97.8969 1111.6 112.811ZM808.664 112.811C823.285 97.897 837.088 81.547 849.958 63.9086C860.546 49.3982 870.502 34.0188 879.764 17.8543C879.48 13.7475 879.202 9.59042 878.93 5.38456C857.777 40.3362 833.062 71.9139 805.437 99.3323C806.495 103.946 807.569 108.44 808.664 112.811ZM1107.42 128.578C1108.7 124.01 1109.96 119.281 1111.2 114.395C1084.66 87.4432 1060.82 55.7978 1040.32 20.3525C1040 25.0522 1039.66 29.6851 1039.32 34.2491C1044.93 44.5188 1050.8 54.4374 1056.91 63.979C1072.31 88.0398 1089.23 109.697 1107.42 128.578ZM812.841 128.578C831.028 109.697 847.949 88.0396 863.353 63.979C869.462 54.4372 875.33 44.5189 880.945 34.2491C880.602 29.6851 880.266 25.0522 879.938 20.3525C859.441 55.7978 835.598 87.4432 809.065 114.395C810.301 119.281 811.56 124.01 812.841 128.578ZM1102.16 146.068C1103.8 141.008 1105.41 135.694 1106.98 130.135C1081.7 104.003 1058.86 72.5519 1039.12 36.802C1038.69 42.5332 1038.24 48.1538 1037.78 53.6598C1039.61 57.1738 1041.46 60.6415 1043.34 64.06C1060.84 95.9075 1080.61 123.529 1102.16 146.068ZM818.102 146.068C839.647 123.53 859.419 95.9073 876.923 64.06C878.802 60.6414 880.653 57.1739 882.479 53.6598C882.021 48.1538 881.574 42.5332 881.138 36.802C861.404 72.5518 838.565 104.003 813.277 130.135C814.854 135.694 816.463 141.008 818.102 146.068ZM1095.12 165.76C1097.35 160.141 1099.53 154.07 1101.67 147.57C1077.92 122.846 1056.34 92.0194 1037.57 56.2625C1036.94 63.6218 1036.31 70.7723 1035.65 77.7037C1053.23 113.475 1073.27 143.272 1095.12 165.76ZM825.14 165.76C846.991 143.272 867.037 113.474 884.614 77.7037C883.956 70.7723 883.317 63.6218 882.697 56.2625C863.926 92.0194 842.342 122.846 818.593 147.57C820.727 154.07 822.91 160.141 825.14 165.76ZM1086.35 185.053C1088.13 181.688 1089.89 178.04 1091.62 174.116C1092.61 171.89 1093.58 169.577 1094.55 167.179C1072.8 144.913 1052.88 115.511 1035.39 80.3455C1034.57 88.8842 1033.72 97.0832 1032.85 104.923C1045.86 132.785 1060.24 156.023 1075.64 173.765C1079.16 177.821 1082.73 181.587 1086.35 185.053ZM833.912 185.053C837.53 181.587 841.1 177.821 844.621 173.765C860.024 156.022 874.403 132.785 887.417 104.923C886.54 97.0832 885.69 88.8842 884.868 80.3455C867.385 115.511 847.457 144.913 825.709 167.179C826.677 169.577 827.653 171.89 828.638 174.116C830.374 178.04 832.133 181.688 833.912 185.053ZM1172.12 145.533C1173.68 142.267 1175.23 138.896 1176.76 135.421C1156.31 121.173 1136.94 105.229 1118.81 87.7699C1118.01 91.5464 1117.19 95.2521 1116.36 98.885C1133.84 116.171 1152.48 131.786 1172.12 145.533ZM748.142 145.533C767.78 131.786 786.422 116.171 803.9 98.885C803.071 95.2521 802.255 91.5464 801.449 87.7699C783.32 105.229 763.95 121.173 743.503 135.421C745.03 138.896 746.577 142.267 748.142 145.533ZM1165.47 158.571C1167.51 154.825 1169.52 150.905 1171.5 146.815C1151.96 133.15 1133.4 117.644 1115.99 100.49C1114.93 105.106 1113.85 109.604 1112.74 113.978C1129.33 130.758 1146.96 145.693 1165.47 158.571ZM754.793 158.571C773.306 145.693 790.934 130.758 807.517 113.978C806.416 109.604 805.333 105.106 804.269 100.49C786.859 117.644 768.301 133.15 748.76 146.815C750.743 150.905 752.754 154.825 754.793 158.571ZM1074.06 203.396C1078 199.037 1081.88 193.325 1085.67 186.33C1066.33 167.897 1048.42 141.115 1032.55 107.569C1031.29 118.605 1029.98 128.909 1028.63 138.424C1034.71 151.93 1041.09 163.813 1047.73 173.914C1056.19 186.803 1065 196.706 1074.06 203.396ZM846.199 203.396C855.258 196.706 864.071 186.803 872.535 173.914C879.168 163.813 885.551 151.93 891.636 138.424C890.28 128.909 888.972 118.605 887.717 107.569C871.838 141.115 853.936 167.897 834.594 186.33C838.383 193.325 842.259 199.037 846.199 203.396ZM1157.89 171.49C1160.22 167.814 1162.52 163.916 1164.79 159.803C1146.38 147.007 1128.85 132.188 1112.34 115.558C1111.1 120.444 1109.83 125.174 1108.55 129.742C1124.12 145.768 1140.62 159.762 1157.89 171.49ZM762.374 171.49C779.639 159.762 796.138 145.768 811.716 129.742C810.427 125.174 809.161 120.444 807.917 115.558C791.414 132.188 773.879 147.007 755.469 159.803C757.738 163.916 760.039 167.814 762.374 171.49ZM1148.53 184.802C1151.16 181.451 1153.76 177.82 1156.32 173.914C1156.59 173.502 1156.86 173.087 1157.13 172.668C1139.98 161.019 1123.59 147.15 1108.11 131.293C1106.52 136.846 1104.91 142.155 1103.26 147.21C1117.62 162.077 1132.76 174.692 1148.53 184.802ZM771.728 184.802C787.503 174.692 802.643 162.077 817.004 147.21C815.356 142.155 813.739 136.846 812.154 131.293C796.672 147.15 780.281 161.019 763.129 172.668C763.399 173.086 763.669 173.502 763.939 173.914C766.504 177.82 769.102 181.451 771.728 184.802ZM1220.18 173.765C1222.41 171.203 1224.61 168.526 1226.79 165.737C1209.92 156.952 1193.61 147.091 1177.93 136.234C1176.4 139.706 1174.85 143.077 1173.28 146.343C1188.24 156.739 1203.77 166.051 1219.81 174.195C1219.93 174.051 1220.06 173.909 1220.18 173.765ZM700.453 174.195C716.488 166.051 732.022 156.739 746.981 146.343C745.413 143.077 743.864 139.706 742.334 136.234C726.651 147.091 710.337 156.952 693.469 165.737C695.65 168.526 697.852 171.203 700.076 173.765C700.201 173.909 700.328 174.051 700.453 174.195ZM1055.53 213.601C1061.37 213.601 1067.24 210.572 1073.11 204.426C1057 192.47 1041.88 170.723 1028.26 140.988C1026.13 155.567 1023.9 168.225 1021.56 178.752C1026.62 189.425 1031.86 197.778 1037.22 203.632C1043.32 210.312 1049.45 213.601 1055.53 213.601ZM864.728 213.601C870.812 213.601 876.937 210.312 883.045 203.632C888.399 197.778 893.637 189.426 898.698 178.752C896.366 168.225 894.128 155.567 892.005 140.988C878.382 170.722 863.265 192.47 847.155 204.426C853.017 210.572 858.891 213.601 864.728 213.601ZM1209.9 184.641C1212.92 181.729 1215.9 178.609 1218.85 175.285C1202.94 167.185 1187.52 157.938 1172.66 147.626C1170.68 151.71 1168.66 155.627 1166.62 159.372C1180.57 168.993 1195.02 177.446 1209.9 184.641ZM710.361 184.641C725.24 177.446 739.689 168.993 753.639 159.372C751.597 155.627 749.584 151.71 747.6 147.626C732.746 157.938 717.326 167.185 701.412 175.285C704.361 178.609 707.345 181.729 710.361 184.641ZM1136.37 198.117C1140.18 194.616 1143.95 190.539 1147.66 185.903C1132.02 175.861 1117.01 163.378 1102.76 148.706C1100.62 155.19 1098.43 161.246 1096.19 166.853C1109.01 179.875 1122.45 190.385 1136.37 198.117ZM783.896 198.117C797.814 190.385 811.25 179.875 824.072 166.853C821.831 161.246 819.64 155.19 817.497 148.706C803.256 163.378 788.245 175.861 772.6 185.903C776.311 190.539 780.079 194.617 783.896 198.117ZM1198.77 194.319C1202.16 191.692 1205.51 188.806 1208.82 185.67C1194.09 178.513 1179.77 170.129 1165.95 160.604C1163.68 164.708 1161.38 168.601 1159.04 172.275C1171.89 180.907 1185.15 188.287 1198.77 194.319ZM721.487 194.319C735.109 188.287 748.374 180.907 761.217 172.275C758.883 168.601 756.582 164.708 754.315 160.604C740.491 170.129 726.176 178.513 711.438 185.67C714.751 188.806 718.1 191.692 721.487 194.319ZM1260.3 191.847C1263.41 189.775 1266.5 187.562 1269.56 185.211C1255.4 179.654 1241.55 173.366 1228.05 166.391C1225.76 169.333 1223.44 172.153 1221.1 174.847C1233.86 181.269 1246.94 186.95 1260.3 191.847ZM659.962 191.847C673.321 186.95 686.401 181.269 699.166 174.847C696.822 172.153 694.503 169.333 692.208 166.391C678.713 173.366 664.864 179.654 650.7 185.211C653.76 187.562 656.847 189.775 659.962 191.847ZM1121.71 208.575C1126.28 206.223 1130.81 203.058 1135.27 199.109C1121.52 191.413 1108.27 181.043 1095.62 168.265C1092.95 174.844 1090.2 180.785 1087.4 186.051C1098.45 196.428 1109.92 204.019 1121.71 208.575ZM798.555 208.575C810.343 204.019 821.815 196.428 832.859 186.051C830.058 180.785 827.317 174.844 824.641 168.265C811.995 181.043 798.739 191.413 784.997 199.109C789.455 203.058 793.978 206.223 798.555 208.575ZM1185.28 203.308C1189.4 201.005 1193.48 198.328 1197.51 195.286C1184.07 189.281 1170.97 181.972 1158.29 173.45C1155.48 177.806 1152.62 181.844 1149.72 185.554C1161.26 192.842 1173.13 198.794 1185.28 203.308ZM734.98 203.308C747.133 198.794 759.006 192.842 770.543 185.554C767.642 181.844 764.782 177.806 761.97 173.45C749.289 181.972 736.195 189.281 722.749 195.286C726.778 198.328 730.857 201.005 734.98 203.308ZM1247.13 199.681C1251.07 197.61 1254.98 195.316 1258.84 192.807C1245.65 187.932 1232.74 182.295 1220.14 175.939C1217.21 179.251 1214.24 182.368 1211.24 185.284C1222.95 190.877 1234.93 195.691 1247.13 199.681ZM673.131 199.681C685.335 195.691 697.308 190.877 709.017 185.284C706.017 182.368 703.052 179.251 700.124 175.939C687.52 182.295 674.609 187.932 661.424 192.807C665.287 195.316 669.189 197.61 673.131 199.681ZM1297.72 203.307C1301.57 201.878 1305.38 200.304 1309.17 198.59C1296.25 194.91 1283.55 190.638 1271.09 185.803C1268.06 188.15 1265.01 190.363 1261.93 192.441C1273.65 196.677 1285.59 200.308 1297.72 203.307ZM622.544 203.307C634.67 200.308 646.608 196.677 658.333 192.441C655.253 190.363 652.2 188.15 649.176 185.803C636.714 190.638 624.01 194.91 611.089 198.59C614.878 200.304 618.696 201.878 622.544 203.307ZM1232.52 206.265C1236.85 204.633 1241.14 202.736 1245.39 200.58C1233.42 196.602 1221.66 191.835 1210.17 186.321C1206.9 189.44 1203.58 192.321 1200.23 194.955C1210.79 199.549 1221.56 203.334 1232.52 206.265ZM687.739 206.265C698.697 203.334 709.472 199.549 720.034 194.955C716.681 192.321 713.366 189.44 710.093 186.321C698.598 191.835 686.846 196.602 674.87 200.58C679.118 202.736 683.409 204.633 687.739 206.265ZM1168.09 210.633C1173.34 209.08 1178.53 206.925 1183.66 204.193C1171.76 199.68 1160.14 193.804 1148.85 186.657C1145.18 191.245 1141.45 195.31 1137.66 198.826C1147.58 204.203 1157.74 208.171 1168.09 210.633ZM752.173 210.633C762.526 208.171 772.685 204.203 782.603 198.826C778.81 195.31 775.079 191.245 771.416 186.657C760.121 193.804 748.5 199.68 736.604 204.193C741.73 206.925 746.922 209.08 752.173 210.633ZM1102.02 213.601C1108.09 213.601 1114.09 212.183 1120.01 209.408C1108.54 204.772 1097.41 197.321 1086.72 187.322C1082.98 194.182 1079.14 199.844 1075.2 204.219C1083.95 210.405 1092.92 213.601 1102.02 213.601ZM818.237 213.601C827.34 213.601 836.311 210.406 845.059 204.219C841.127 199.844 837.283 194.182 833.543 187.322C822.848 197.321 811.718 204.771 800.251 209.408C806.17 212.183 812.174 213.601 818.237 213.601ZM1281.14 208.52C1285.92 207.286 1290.66 205.832 1295.36 204.163C1283.54 201.168 1271.91 197.574 1260.48 193.409C1256.69 195.907 1252.86 198.2 1248.99 200.281C1259.54 203.652 1270.27 206.408 1281.14 208.52ZM639.12 208.52C649.994 206.408 660.719 203.652 671.272 200.281C667.404 198.2 663.575 195.907 659.785 193.409C648.353 197.574 636.718 201.168 624.902 204.163C629.602 205.832 634.342 207.286 639.12 208.52ZM1215.06 211.352C1220.17 210.296 1225.23 208.874 1230.25 207.097C1219.64 204.157 1209.2 200.42 1198.97 195.931C1195.03 198.943 1191.04 201.618 1187.01 203.938C1196.21 207.246 1205.57 209.73 1215.06 211.352ZM705.204 211.352C714.697 209.73 724.056 207.246 733.256 203.938C729.219 201.618 725.23 198.943 721.292 195.931C711.06 200.42 700.626 204.157 690.015 207.097C695.029 208.874 700.094 210.296 705.204 211.352ZM1329.15 209.582C1333.53 208.722 1337.88 207.727 1342.2 206.598C1331.76 204.501 1321.44 202.022 1311.25 199.177C1307.57 200.882 1303.86 202.457 1300.13 203.895C1309.69 206.189 1319.37 208.089 1329.15 209.582ZM591.11 209.582C600.893 208.089 610.573 206.189 620.136 203.895C616.398 202.457 612.689 200.882 609.007 199.177C598.823 202.022 588.505 204.501 578.066 206.598C582.386 207.727 586.735 208.722 591.11 209.582ZM1147.91 213.601C1153.78 213.601 1159.59 212.853 1165.34 211.389C1155.55 208.835 1145.94 204.953 1136.56 199.825C1132.27 203.674 1127.9 206.82 1123.46 209.231C1131.48 212.117 1139.64 213.601 1147.91 213.601ZM772.348 213.601C780.619 213.601 788.782 212.117 796.801 209.231C792.364 206.82 787.994 203.674 783.701 199.825C774.32 204.953 764.715 208.835 754.924 211.389C760.669 212.853 766.481 213.601 772.348 213.601ZM1262.96 212.123C1268 211.427 1273 210.486 1277.96 209.31C1267.58 207.179 1257.34 204.467 1247.26 201.195C1243.16 203.327 1239.02 205.221 1234.84 206.872C1244.09 209.238 1253.47 210.999 1262.96 212.123ZM657.303 212.123C666.792 210.999 676.17 209.238 685.419 206.872C681.239 205.221 677.099 203.327 673 201.195C662.92 204.467 652.682 207.179 642.306 209.31C647.267 210.486 652.267 211.427 657.303 212.123ZM1309.43 212.517C1314.67 211.986 1319.87 211.262 1325.04 210.349C1315.86 208.843 1306.78 206.981 1297.79 204.771C1293.34 206.413 1288.85 207.865 1284.32 209.12C1292.61 210.63 1300.98 211.766 1309.43 212.517ZM610.836 212.517C619.284 211.766 627.655 210.63 635.942 209.12C631.414 207.865 626.922 206.413 622.467 204.771C613.484 206.981 604.397 208.843 595.217 210.349C600.388 211.262 605.595 211.986 610.836 212.517ZM1193.19 213.601C1199.26 213.601 1205.27 213.086 1211.22 212.074C1202.49 210.378 1193.87 207.956 1185.4 204.841C1180.6 207.479 1175.74 209.62 1170.82 211.244C1178.19 212.803 1185.65 213.601 1193.19 213.601ZM727.067 213.601C734.611 213.601 742.076 212.803 749.446 211.244C744.525 209.62 739.663 207.479 734.867 204.841C726.389 207.956 717.774 210.378 709.04 212.074C714.992 213.086 721.005 213.601 727.067 213.601ZM1356.57 212.667C1361.06 212.298 1365.53 211.82 1369.97 211.234C1361.68 210.129 1353.46 208.786 1345.31 207.212C1341.3 208.314 1337.26 209.304 1333.2 210.177C1340.93 211.264 1348.72 212.095 1356.57 212.667ZM563.696 212.667C571.543 212.095 579.332 211.264 587.058 210.177C582.998 209.304 578.962 208.314 574.951 207.212C566.801 208.786 558.579 210.129 550.29 211.234C554.737 211.82 559.206 212.298 563.696 212.667ZM1241.5 213.601C1246.82 213.601 1252.11 213.33 1257.36 212.795C1249.01 211.589 1240.75 209.896 1232.6 207.732C1228.05 209.429 1223.45 210.837 1218.82 211.948C1226.3 213.042 1233.87 213.601 1241.5 213.601ZM678.762 213.601C686.395 213.601 693.96 213.042 701.444 211.948C696.808 210.837 692.213 209.429 687.663 207.732C679.508 209.896 671.251 211.589 662.903 212.795C668.153 213.33 673.441 213.601 678.762 213.601ZM1287.99 213.601C1292.64 213.601 1297.26 213.448 1301.87 213.147C1294.92 212.34 1288.03 211.275 1281.19 209.955C1276.96 211.041 1272.69 211.955 1268.39 212.695C1274.88 213.295 1281.41 213.601 1287.99 213.601ZM632.271 213.601C638.85 213.601 645.384 213.295 651.868 212.695C647.573 211.955 643.307 211.041 639.07 209.955C632.236 211.275 625.343 212.34 618.396 213.147C622.997 213.448 627.623 213.601 632.271 213.601ZM1333.88 213.601C1338.37 213.601 1342.84 213.49 1347.28 213.275C1341.21 212.672 1335.18 211.913 1329.18 211.002C1325.04 211.811 1320.87 212.5 1316.69 213.066C1322.39 213.421 1328.12 213.601 1333.88 213.601ZM586.379 213.601C592.142 213.601 597.875 213.421 603.575 213.066C599.388 212.5 595.224 211.811 591.083 211.002C585.086 211.913 579.05 212.672 572.977 213.275C577.425 213.49 581.893 213.601 586.379 213.601ZM1382.18 213.601C1385.07 213.601 1387.95 213.565 1390.82 213.495C1385.6 213.058 1380.41 212.525 1375.24 211.902C1371.98 212.392 1368.71 212.827 1365.43 213.202C1370.98 213.467 1376.57 213.601 1382.18 213.601ZM538.081 213.601C543.692 213.601 549.278 213.467 554.836 213.202C551.552 212.827 548.281 212.392 545.022 211.902C539.854 212.525 534.662 213.058 529.445 213.495C532.316 213.565 535.195 213.601 538.081 213.601Z" fill="url(#paint0_radial_6015_2623)"/>
</g>
<defs>
<filter id="filter0_i_6015_2623" x="0" y="-11.0009" width="1919" height="244.001" filterUnits="userSpaceOnUse" color-interpolation-filters="sRGB">
<feFlood flood-opacity="0" result="BackgroundImageFix"/>
<feBlend mode="normal" in="SourceGraphic" in2="BackgroundImageFix" result="shape"/>
<feColorMatrix in="SourceAlpha" type="matrix" values="0 0 0 0 0 0 0 0 0 0 0 0 0 0 0 0 0 0 127 0" result="hardAlpha"/>
<feOffset dy="-11.0009"/>
<feGaussianBlur stdDeviation="11.6509"/>
<feComposite in2="hardAlpha" operator="arithmetic" k2="-1" k3="1"/>
<feColorMatrix type="matrix" values="0 0 0 0 0 0 0 0 0 0 0 0 0 0 0 0 0 0 0.1 0"/>
<feBlend mode="normal" in2="shape" result="effect1_innerShadow_6015_2623"/>
</filter>
<radialGradient id="paint0_radial_6015_2623" cx="0" cy="0" r="1" gradientUnits="userSpaceOnUse" gradientTransform="translate(954.5 178.5) rotate(-90) scale(185.5 2890.31)">
<stop stop-color="white"/>
<stop offset="0.550817" stop-color="#A9A9A9" stop-opacity="0.2"/>
<stop offset="1" stop-opacity="0.02"/>
</radialGradient>
<clipPath id="clip0_6015_2623">
<rect width="1919" height="233" fill="white" transform="matrix(1 0 0 -1 0 233)"/>
</clipPath>
</defs>
</svg>
